<svg xmlns="http://www.w3.org/2000/svg" width="194.996" height="179.988" viewBox="0 0 194.996 179.988">
  <g id="send-svgrepo-com" transform="translate(0 -19.704)">
    <g id="Group_8174" data-name="Group 8174" transform="translate(0 19.704)">
      <path id="Path_9935" data-name="Path 9935" d="M192.431,74.054l-60-52.5A7.5,7.5,0,0,0,120,27.195v7.5H7.5a7.5,7.5,0,0,0-7.5,7.5v150a7.493,7.493,0,0,0,7.5,7.5h150a7.493,7.493,0,0,0,7.5-7.5V109.348l27.434-24.007a7.492,7.492,0,0,0,0-11.287ZM150,184.692H15v-135H120v1.838c-17.04,5.392-65.391,25.477-67.491,80.376a7.494,7.494,0,0,0,6.053,7.65,7.273,7.273,0,0,0,1.448.135,7.484,7.484,0,0,0,7.035-4.935c7.582-20.842,38.759-24.442,52.956-25v22.432a7.491,7.491,0,0,0,4.4,6.833,7.182,7.182,0,0,0,2.752.593c.12.008.225.075.345.075.15,0,.293-.067.435-.075a8.047,8.047,0,0,0,1.635-.292c.255-.075.51-.128.75-.225a7.319,7.319,0,0,0,2.115-1.26L150,122.473v62.219Z" transform="translate(0 -19.704)" fill="#cbc3ca"/>
    </g>
  </g>
</svg>
