<svg xmlns="http://www.w3.org/2000/svg" width="185.918" height="156.408" viewBox="0 0 185.918 156.408">
  <g id="three-archives-svgrepo-com" transform="translate(0 -21.263)">
    <g id="Group_8173" data-name="Group 8173" transform="translate(0 21.263)">
      <rect id="Rectangle_4379" data-name="Rectangle 4379" width="9.66" height="0.691" transform="translate(23.395 63.571)" fill="#cbc3ca"/>
      <path id="Path_9932" data-name="Path 9932" d="M0,177.671H56.449V21.263H0ZM15.113,35.147H41.336V52.4H15.113Zm0,20.7H41.336V73.1H15.113Zm0,20.7H41.336V93.807H15.113Zm0,66.249H41.336v26.222H15.113Z" transform="translate(0 -21.263)" fill="#cbc3ca"/>
      <rect id="Rectangle_4380" data-name="Rectangle 4380" width="9.66" height="9.66" transform="translate(23.395 129.821)" fill="#cbc3ca"/>
      <rect id="Rectangle_4381" data-name="Rectangle 4381" width="9.66" height="0.691" transform="translate(23.395 22.165)" fill="#cbc3ca"/>
      <rect id="Rectangle_4382" data-name="Rectangle 4382" width="9.66" height="0.691" transform="translate(23.395 42.868)" fill="#cbc3ca"/>
      <rect id="Rectangle_4383" data-name="Rectangle 4383" width="9.66" height="0.691" transform="translate(88.129 63.571)" fill="#cbc3ca"/>
      <rect id="Rectangle_4384" data-name="Rectangle 4384" width="9.66" height="0.691" transform="translate(88.129 22.165)" fill="#cbc3ca"/>
      <rect id="Rectangle_4385" data-name="Rectangle 4385" width="9.66" height="0.691" transform="translate(88.129 42.868)" fill="#cbc3ca"/>
      <rect id="Rectangle_4386" data-name="Rectangle 4386" width="9.66" height="9.66" transform="translate(88.129 129.821)" fill="#cbc3ca"/>
      <path id="Path_9933" data-name="Path 9933" d="M93.286,177.671h56.453V21.263H93.286ZM108.4,35.147h26.222V52.4H108.4Zm0,20.7h26.222V73.1H108.4Zm0,20.7h26.222V93.807H108.4Zm0,66.249h26.222v26.222H108.4Z" transform="translate(-28.551 -21.263)" fill="#cbc3ca"/>
      <path id="Path_9934" data-name="Path 9934" d="M186.572,21.263V177.671h56.449V21.263Zm41.336,147.763H201.681V142.8h26.227Zm0-75.223H201.681V76.549h26.227Zm0-20.7H201.681V55.845h26.227Zm0-20.7H201.681V35.142h26.227Z" transform="translate(-57.103 -21.263)" fill="#cbc3ca"/>
      <rect id="Rectangle_4387" data-name="Rectangle 4387" width="9.664" height="0.691" transform="translate(152.86 22.165)" fill="#cbc3ca"/>
      <rect id="Rectangle_4388" data-name="Rectangle 4388" width="9.664" height="0.691" transform="translate(152.86 63.571)" fill="#cbc3ca"/>
      <rect id="Rectangle_4389" data-name="Rectangle 4389" width="9.664" height="9.66" transform="translate(152.86 129.821)" fill="#cbc3ca"/>
      <rect id="Rectangle_4390" data-name="Rectangle 4390" width="9.664" height="0.691" transform="translate(152.86 42.868)" fill="#cbc3ca"/>
    </g>
  </g>
</svg>
