<svg xmlns="http://www.w3.org/2000/svg" width="316.359" height="98.736" viewBox="0 0 316.359 98.736">
  <g id="dark_logo" data-name="dark logo" transform="translate(-8245 6286)">
    <g id="Group_8175" data-name="Group 8175" transform="translate(8446 -6286)">
      <rect id="Rectangle_4245" data-name="Rectangle 4245" width="28.67" height="28.67" transform="translate(57.679 98.736) rotate(-135)" fill="#250221"/>
      <rect id="Rectangle_4246" data-name="Rectangle 4246" width="28.669" height="28.669" rx="14.334" transform="translate(57.678 40.544) rotate(-135)" fill="#250221"/>
      <rect id="Rectangle_4247" data-name="Rectangle 4247" width="40.784" height="40.786" transform="translate(86.521 78.207) rotate(-135.003)" fill="#8a1739"/>
      <rect id="Rectangle_4248" data-name="Rectangle 4248" width="40.786" height="40.786" rx="20.393" transform="translate(28.839 78.208) rotate(-134.997)" fill="#8a1739"/>
    </g>
    <g id="Group_8176" data-name="Group 8176" transform="translate(6966 -7009)">
      <path id="Path_9936" data-name="Path 9936" d="M0,5.142q1.494.439,2.538.637a10.484,10.484,0,0,0,1.945.2A6.2,6.2,0,0,0,7.46,5.339,4.9,4.9,0,0,0,9.316,3.615a7.133,7.133,0,0,0,.945-2.527,17,17,0,0,0,.264-3.065,21.73,21.73,0,0,0-.209-3.01,27.919,27.919,0,0,0-.6-3.043q-.4-1.549-.956-3.23T7.515-14.854H12.3q.637,1.626,1.143,3.318T14.3-8.152q.352,1.692.538,3.329a27.653,27.653,0,0,1,.187,3.131,18.351,18.351,0,0,1-.835,5.856,11.875,11.875,0,0,1-2.252,4.087,8.951,8.951,0,0,1-3.318,2.406,10.332,10.332,0,0,1-4.01.791,11.46,11.46,0,0,1-2.164-.209A15.614,15.614,0,0,1,0,10.525ZM21.907,0V-33.311h4.373V0Zm8.152,4.307a25.624,25.624,0,0,0,4.12,1.3,16.84,16.84,0,0,0,3.439.374,8.135,8.135,0,0,0,3.175-.538,5.588,5.588,0,0,0,2.032-1.406,5.389,5.389,0,0,0,1.121-2,11.3,11.3,0,0,0,.461-2.318,9.015,9.015,0,0,1-3.3.615,9.728,9.728,0,0,1-2.8-.417,7.329,7.329,0,0,1-2.516-1.318,6.683,6.683,0,0,1-1.813-2.318,7.724,7.724,0,0,1-.692-3.417,10.183,10.183,0,0,1,.264-2.274,11.912,11.912,0,0,1,.747-2.23,11.931,11.931,0,0,1,1.154-2.021A8.682,8.682,0,0,1,36.947-15.3,7.187,7.187,0,0,1,38.7-16.4a4.875,4.875,0,0,1,1.967-.406,5.144,5.144,0,0,1,3.043.956,10.24,10.24,0,0,1,2.6,2.933A14.712,14.712,0,0,1,48.23-8.141a26.945,26.945,0,0,1,.615,5.878A21.025,21.025,0,0,1,48.2,3.043,12.649,12.649,0,0,1,46.176,7.4a9.846,9.846,0,0,1-3.494,2.955,10.973,10.973,0,0,1-5.065,1.088,16.7,16.7,0,0,1-1.824-.1,16.35,16.35,0,0,1-1.824-.308,18.534,18.534,0,0,1-1.89-.538q-.967-.33-2.021-.769Zm14.26-9.6a11.564,11.564,0,0,0-.483-1.846A12.345,12.345,0,0,0,42.979-9.1a7.015,7.015,0,0,0-1.132-1.56,1.876,1.876,0,0,0-1.351-.637,1.912,1.912,0,0,0-1.154.4,3.963,3.963,0,0,0-.934.978,5.214,5.214,0,0,0-.626,1.263,3.878,3.878,0,0,0-.231,1.23A2.262,2.262,0,0,0,37.87-6.2a2.5,2.5,0,0,0,.857.824,4.17,4.17,0,0,0,1.241.472,6.872,6.872,0,0,0,1.472.154,9.414,9.414,0,0,0,1.483-.121A5,5,0,0,0,44.319-5.3ZM71.389.483H70.84a4.7,4.7,0,0,1-2-.341,3.448,3.448,0,0,1-1.208-.978.087.087,0,0,0-.055.011.087.087,0,0,1-.055.011,17.884,17.884,0,0,1-.989,5.471A11.438,11.438,0,0,1,64.292,8.47a8.79,8.79,0,0,1-3.208,2.241,10.234,10.234,0,0,1-3.867.736,11.46,11.46,0,0,1-2.164-.209,15.614,15.614,0,0,1-2.45-.714V5.142q1.494.439,2.538.637a10.484,10.484,0,0,0,1.945.2,6.072,6.072,0,0,0,2.955-.637,4.86,4.86,0,0,0,1.824-1.725,7.112,7.112,0,0,0,.923-2.527,17.723,17.723,0,0,0,.253-3.065,22.918,22.918,0,0,0-.2-3.01,27.743,27.743,0,0,0-.582-3.043q-.385-1.549-.923-3.23t-1.219-3.593h4.79a34.142,34.142,0,0,1,1.263,3.779q.516,1.912.868,3.845a2.9,2.9,0,0,0,.33.956,2.106,2.106,0,0,0,.725.736,3.836,3.836,0,0,0,1.274.472,10.2,10.2,0,0,0,2.021.165ZM64.072-20.193h-4.9v-4.46h4.9ZM78.9-33.311V-7.976a10.739,10.739,0,0,1-.725,4.285,6.477,6.477,0,0,1-1.912,2.571A6.754,6.754,0,0,1,73.553.143a14.341,14.341,0,0,1-3.131.341H67.632a1.234,1.234,0,0,1-1.154-.736,4.267,4.267,0,0,1-.385-1.967,4.21,4.21,0,0,1,.385-1.945A1.234,1.234,0,0,1,67.632-4.9h3.01a13.818,13.818,0,0,0,1.648-.088,2.768,2.768,0,0,0,1.219-.417,2.071,2.071,0,0,0,.758-.978,4.738,4.738,0,0,0,.264-1.747V-33.311ZM85.781,0V-33.311h4.373V0Zm35.8-17.117a5.441,5.441,0,0,1,2.274.483,7.275,7.275,0,0,1,1.945,1.3,9.546,9.546,0,0,1,1.56,1.879,13.685,13.685,0,0,1,1.154,2.23,13.834,13.834,0,0,1,.725,2.373,11.184,11.184,0,0,1,.253,2.285,8.221,8.221,0,0,1-.472,2.834,6.53,6.53,0,0,1-1.351,2.241,6.1,6.1,0,0,1-2.131,1.472,7.124,7.124,0,0,1-2.791.527,11.07,11.07,0,0,1-2.175-.22q-1.1-.22-2.153-.483t-2.043-.483a8.451,8.451,0,0,0-1.824-.22,3.316,3.316,0,0,0-1.384.253,2.043,2.043,0,0,0-.857.7,2.852,2.852,0,0,0-.428,1.1,7.879,7.879,0,0,0-.121,1.439q0,.681.088,1.626T112.11,6.3q.176,1.132.472,2.4t.714,2.6h-4.614q-.637-2.7-.978-4.845a24.578,24.578,0,0,1-.341-3.812,11.509,11.509,0,0,1,.4-3.12,8.25,8.25,0,0,1,1.121-2.461,6.455,6.455,0,0,1,1.747-1.736,6.765,6.765,0,0,1,2.3-.967,28.322,28.322,0,0,1,1.23-4.274,18.126,18.126,0,0,1,1.505-3.087,10.706,10.706,0,0,1,1.648-2.076,8.831,8.831,0,0,1,1.626-1.252,5.552,5.552,0,0,1,1.472-.615A5.217,5.217,0,0,1,121.58-17.117ZM122.613-4.7a5.738,5.738,0,0,0,.945-.077,2.2,2.2,0,0,0,.813-.3,1.616,1.616,0,0,0,.56-.593,1.971,1.971,0,0,0,.209-.967,5.046,5.046,0,0,0-.286-1.483,7.365,7.365,0,0,0-.8-1.7,5.677,5.677,0,0,0-1.241-1.4,2.5,2.5,0,0,0-1.6-.582,2.56,2.56,0,0,0-1.45.439,4.423,4.423,0,0,0-1.2,1.241,10.323,10.323,0,0,0-.989,1.934,23.076,23.076,0,0,0-.824,2.516q1.45.264,2.9.615A12.545,12.545,0,0,0,122.613-4.7Zm17.556-28.608V-9.646q0,1.3.088,2.2a3.078,3.078,0,0,0,.472,1.461,2.215,2.215,0,0,0,1.132.824,6.429,6.429,0,0,0,2.065.264V.483h-.857a8.133,8.133,0,0,1-3.658-.714,5.645,5.645,0,0,1-2.219-1.923,7.487,7.487,0,0,1-1.1-2.812,18.589,18.589,0,0,1-.3-3.384V-33.311Zm15.007,0v19.863l.11.022a21.138,21.138,0,0,1,2.318-2.692,16.022,16.022,0,0,1,2.791-2.2,14.441,14.441,0,0,1,3.219-1.483,11.734,11.734,0,0,1,3.6-.549,11.248,11.248,0,0,1,4.548.857,8.955,8.955,0,0,1,3.263,2.384,10.35,10.35,0,0,1,1.978,3.615,16.245,16.245,0,0,1,.736,4.548,13.051,13.051,0,0,0,.143,1.747,2.926,2.926,0,0,0,.494,1.274,2.2,2.2,0,0,0,1.11.769,6.4,6.4,0,0,0,2.01.253V.483h-.527a7.994,7.994,0,0,1-3.263-.593,4.09,4.09,0,0,1-2.032-2.043h-.132A6.115,6.115,0,0,1,173.37-.56a12.386,12.386,0,0,1-2.8.835,22.31,22.31,0,0,1-3.23.33q-1.7.055-3.483.055-1.956,0-4.274-.022t-4.79-.055L149.815.516q-2.5-.033-4.834-.033h-1.055a1.234,1.234,0,0,1-1.154-.736,4.267,4.267,0,0,1-.385-1.967,4.21,4.21,0,0,1,.385-1.945,1.234,1.234,0,0,1,1.154-.736h6.548q.066-.2.143-.374t.187-.4V-33.311Zm-.615,28.5q.659.044,1.879.055l2.626.022q1.406.011,2.823.011h2.494q2.7,0,4.438-.088a9.878,9.878,0,0,0,2.747-.45,2.469,2.469,0,0,0,1.406-1.077,4.086,4.086,0,0,0,.4-1.967,8.24,8.24,0,0,0-.472-2.933,5.556,5.556,0,0,0-1.329-2.065,5.319,5.319,0,0,0-2.065-1.219,8.661,8.661,0,0,0-2.7-.4,10.032,10.032,0,0,0-4.2.868,12.8,12.8,0,0,0-3.439,2.285,16.239,16.239,0,0,0-2.681,3.241A23.558,23.558,0,0,0,154.561-4.812ZM168.294-24.17h-4.9v-4.46h4.9Zm24.478,5.779V-7.976a11.358,11.358,0,0,1-.681,4.285,6.416,6.416,0,0,1-1.824,2.582A6.22,6.22,0,0,1,187.641.154a14.192,14.192,0,0,1-3.087.33H181.5a1.233,1.233,0,0,1-1.154-.747,4.28,4.28,0,0,1-.385-1.956,4.21,4.21,0,0,1,.385-1.945A1.234,1.234,0,0,1,181.5-4.9h3.274a12.721,12.721,0,0,0,1.6-.088,2.4,2.4,0,0,0,1.132-.417,1.937,1.937,0,0,0,.67-.978,5.607,5.607,0,0,0,.22-1.747V-18.391Zm.132-4.9H188v-4.46h4.9Z" transform="translate(1279 774)" fill="#250221"/>
      <path id="Path_9937" data-name="Path 9937" d="M7.525,0-.125-17.5H3.4L10.225-1.675H8.2L15.1-17.5h3.25L10.725,0ZM20.05,0l-.025-13.35,3.1.025L23.15,0ZM21.6-15.55a1.971,1.971,0,0,1-1.437-.55,1.786,1.786,0,0,1-.562-1.325,1.775,1.775,0,0,1,.563-1.337A2,2,0,0,1,21.6-19.3a2.052,2.052,0,0,1,1.438.513A1.668,1.668,0,0,1,23.6-17.5a1.908,1.908,0,0,1-.55,1.388A1.937,1.937,0,0,1,21.6-15.55ZM31.375.175a11.681,11.681,0,0,1-3.212-.438,8.265,8.265,0,0,1-2.437-1.063l1.2-2.375a8.535,8.535,0,0,0,2.15.95,8.661,8.661,0,0,0,2.5.375,4.308,4.308,0,0,0,2.138-.4,1.212,1.212,0,0,0,.662-1.075.933.933,0,0,0-.45-.838,3.5,3.5,0,0,0-1.175-.437q-.725-.15-1.612-.275t-1.775-.338a6.126,6.126,0,0,1-1.613-.625,3.34,3.34,0,0,1-1.175-1.113,3.378,3.378,0,0,1-.45-1.85,3.511,3.511,0,0,1,.725-2.212,4.629,4.629,0,0,1,2.038-1.45A8.546,8.546,0,0,1,32-13.5a12.754,12.754,0,0,1,2.725.3A7.375,7.375,0,0,1,37-12.35L35.8-9.975a6.328,6.328,0,0,0-1.913-.788,8.849,8.849,0,0,0-1.912-.212,4.113,4.113,0,0,0-2.113.425,1.245,1.245,0,0,0-.687,1.075,1.01,1.01,0,0,0,.45.9A3.671,3.671,0,0,0,30.8-8.1a14.876,14.876,0,0,0,1.613.288,14.283,14.283,0,0,1,1.763.337,7.433,7.433,0,0,1,1.612.613,3.106,3.106,0,0,1,1.188,1.088,3.326,3.326,0,0,1,.45,1.825,3.385,3.385,0,0,1-.738,2.175A4.748,4.748,0,0,1,34.6-.338,9.093,9.093,0,0,1,31.375.175ZM40.15,0l-.025-13.35,3.1.025L43.25,0ZM41.7-15.55a1.971,1.971,0,0,1-1.437-.55,1.786,1.786,0,0,1-.562-1.325,1.775,1.775,0,0,1,.563-1.337A2,2,0,0,1,41.7-19.3a2.052,2.052,0,0,1,1.438.513A1.668,1.668,0,0,1,43.7-17.5a1.908,1.908,0,0,1-.55,1.388A1.937,1.937,0,0,1,41.7-15.55ZM52.375.175a4.75,4.75,0,0,1-3.4-1.138,4.418,4.418,0,0,1-1.2-3.363V-16.3H50.9V-4.4a2.086,2.086,0,0,0,.487,1.475A1.767,1.767,0,0,0,52.75-2.4a2.746,2.746,0,0,0,1.75-.55l.875,2.225a3.672,3.672,0,0,1-1.35.675A6.065,6.065,0,0,1,52.375.175Zm-6.8-10.925v-2.5h8.9v2.5ZM63.5.175a7.683,7.683,0,0,1-3.65-.9,6.569,6.569,0,0,1-2.525-2.413A6.727,6.727,0,0,1,56.4-6.675a6.658,6.658,0,0,1,.938-3.537,6.687,6.687,0,0,1,2.525-2.412A7.411,7.411,0,0,1,63.5-13.5a7.535,7.535,0,0,1,3.675.875,6.6,6.6,0,0,1,2.525,2.4,6.71,6.71,0,0,1,.925,3.55,6.817,6.817,0,0,1-.912,3.525A6.406,6.406,0,0,1,67.175-.725,7.834,7.834,0,0,1,63.5.175Zm0-2.675A4.15,4.15,0,0,0,65.55-3a3.537,3.537,0,0,0,1.412-1.45A4.821,4.821,0,0,0,67.5-6.675a4.8,4.8,0,0,0-.537-2.237A3.556,3.556,0,0,0,65.55-10.35a4.15,4.15,0,0,0-2.05-.5,4.028,4.028,0,0,0-2.013.5,3.663,3.663,0,0,0-1.412,1.438,4.51,4.51,0,0,0-.525,2.237,4.528,4.528,0,0,0,.525,2.225,3.73,3.73,0,0,0,1.412,1.463A3.777,3.777,0,0,0,63.5-2.5ZM73.625,0V-13.35H76.6v3.675l-.35-1.075a4.222,4.222,0,0,1,1.887-2.05,6.663,6.663,0,0,1,3.213-.7v2.975a2.2,2.2,0,0,0-.375-.062q-.175-.012-.35-.012A3.843,3.843,0,0,0,77.8-9.563a4.16,4.16,0,0,0-1.05,3.088V0ZM95.15.175a11.681,11.681,0,0,1-3.213-.438A8.265,8.265,0,0,1,89.5-1.325L90.7-3.7a8.534,8.534,0,0,0,2.15.95,8.661,8.661,0,0,0,2.5.375,4.308,4.308,0,0,0,2.138-.4A1.212,1.212,0,0,0,98.15-3.85a.933.933,0,0,0-.45-.838,3.5,3.5,0,0,0-1.175-.437q-.725-.15-1.613-.275t-1.775-.338a6.126,6.126,0,0,1-1.612-.625A3.34,3.34,0,0,1,90.35-7.475a3.378,3.378,0,0,1-.45-1.85,3.511,3.511,0,0,1,.725-2.212,4.629,4.629,0,0,1,2.037-1.45,8.546,8.546,0,0,1,3.113-.513,12.754,12.754,0,0,1,2.725.3,7.375,7.375,0,0,1,2.275.85l-1.2,2.375a6.328,6.328,0,0,0-1.912-.788,8.849,8.849,0,0,0-1.912-.212,4.113,4.113,0,0,0-2.113.425,1.245,1.245,0,0,0-.687,1.075,1.01,1.01,0,0,0,.45.9,3.671,3.671,0,0,0,1.175.475,14.876,14.876,0,0,0,1.613.288,14.283,14.283,0,0,1,1.762.337,7.433,7.433,0,0,1,1.613.613,3.106,3.106,0,0,1,1.188,1.088,3.326,3.326,0,0,1,.45,1.825,3.385,3.385,0,0,1-.737,2.175A4.748,4.748,0,0,1,98.375-.338,9.092,9.092,0,0,1,95.15.175Zm9.6,4.85A6.134,6.134,0,0,1,102.8,4.7a4.625,4.625,0,0,1-1.625-.9l1.25-2.3a3.78,3.78,0,0,0,1.075.675,3.158,3.158,0,0,0,1.225.25A2.118,2.118,0,0,0,106.1,2a3.845,3.845,0,0,0,.975-1.425l.775-1.75.25-.375,5.05-11.8h3L109.9,1.075a8.708,8.708,0,0,1-1.388,2.375,4.216,4.216,0,0,1-1.7,1.225A5.855,5.855,0,0,1,104.75,5.025ZM107.5.475,101.475-13.35h3.25l4.9,11.525Zm14.55-.3a11.681,11.681,0,0,1-3.213-.438A8.265,8.265,0,0,1,116.4-1.325L117.6-3.7a8.534,8.534,0,0,0,2.15.95,8.661,8.661,0,0,0,2.5.375,4.308,4.308,0,0,0,2.137-.4,1.212,1.212,0,0,0,.663-1.075.933.933,0,0,0-.45-.838,3.5,3.5,0,0,0-1.175-.437q-.725-.15-1.613-.275t-1.775-.338a6.126,6.126,0,0,1-1.612-.625,3.34,3.34,0,0,1-1.175-1.113,3.378,3.378,0,0,1-.45-1.85,3.511,3.511,0,0,1,.725-2.212,4.629,4.629,0,0,1,2.037-1.45,8.546,8.546,0,0,1,3.113-.513,12.754,12.754,0,0,1,2.725.3,7.375,7.375,0,0,1,2.275.85l-1.2,2.375a6.328,6.328,0,0,0-1.912-.788,8.849,8.849,0,0,0-1.912-.212,4.113,4.113,0,0,0-2.113.425,1.245,1.245,0,0,0-.687,1.075,1.01,1.01,0,0,0,.45.9,3.671,3.671,0,0,0,1.175.475,14.876,14.876,0,0,0,1.613.288,14.283,14.283,0,0,1,1.762.337,7.433,7.433,0,0,1,1.613.613,3.106,3.106,0,0,1,1.188,1.088,3.326,3.326,0,0,1,.45,1.825,3.385,3.385,0,0,1-.738,2.175,4.748,4.748,0,0,1-2.088,1.438A9.092,9.092,0,0,1,122.05.175Zm13.775,0a4.75,4.75,0,0,1-3.4-1.138,4.418,4.418,0,0,1-1.2-3.363V-16.3h3.125V-4.4a2.086,2.086,0,0,0,.487,1.475A1.767,1.767,0,0,0,136.2-2.4a2.746,2.746,0,0,0,1.75-.55l.875,2.225a3.672,3.672,0,0,1-1.35.675A6.065,6.065,0,0,1,135.825.175Zm-6.8-10.925v-2.5h8.9v2.5ZM147.225.175a8.136,8.136,0,0,1-3.887-.888,6.43,6.43,0,0,1-2.575-2.438,6.816,6.816,0,0,1-.913-3.525,6.948,6.948,0,0,1,.887-3.537,6.369,6.369,0,0,1,2.45-2.412,7.166,7.166,0,0,1,3.563-.875,7.016,7.016,0,0,1,3.475.85,6.153,6.153,0,0,1,2.4,2.4A7.3,7.3,0,0,1,153.5-6.6q0,.2-.013.45t-.037.475H142.325V-7.75H151.8l-1.225.65a3.836,3.836,0,0,0-.475-2.025,3.658,3.658,0,0,0-1.363-1.375,3.89,3.89,0,0,0-1.987-.5,3.941,3.941,0,0,0-2.013.5,3.544,3.544,0,0,0-1.35,1.387,4.27,4.27,0,0,0-.488,2.087v.5a4.078,4.078,0,0,0,.55,2.125A3.667,3.667,0,0,0,145-2.975a5.077,5.077,0,0,0,2.3.5,5.55,5.55,0,0,0,2.025-.35,4.31,4.31,0,0,0,1.6-1.1L152.6-2a5.882,5.882,0,0,1-2.262,1.613A8.1,8.1,0,0,1,147.225.175ZM173.35-13.5a6.21,6.21,0,0,1,2.837.625,4.47,4.47,0,0,1,1.938,1.913,6.9,6.9,0,0,1,.7,3.313V0H175.7V-7.25a3.9,3.9,0,0,0-.775-2.65,2.816,2.816,0,0,0-2.225-.875,3.588,3.588,0,0,0-1.812.45A3.052,3.052,0,0,0,169.662-9a4.966,4.966,0,0,0-.437,2.225V0H166.1V-7.25a3.9,3.9,0,0,0-.775-2.65,2.816,2.816,0,0,0-2.225-.875,3.588,3.588,0,0,0-1.812.45A3.052,3.052,0,0,0,160.063-9a4.966,4.966,0,0,0-.437,2.225V0H156.5V-13.35h2.975V-9.8l-.525-1.05a4.539,4.539,0,0,1,1.962-1.975,6.232,6.232,0,0,1,2.938-.675,5.743,5.743,0,0,1,3.263.925,4.454,4.454,0,0,1,1.837,2.8l-1.225-.425a5.151,5.151,0,0,1,2.15-2.4A6.623,6.623,0,0,1,173.35-13.5Z" transform="translate(1283 814)" fill="#8a1739"/>
    </g>
  </g>
</svg>
