<svg xmlns="http://www.w3.org/2000/svg" width="306.546" height="215.095" viewBox="0 0 306.546 215.095">
  <g id="dark_logo" data-name="dark logo" transform="translate(3836.469 7299.849)">
    <g id="Group_7980" data-name="Group 7980" transform="translate(-3778.714 -7299.849)">
      <rect id="Rectangle_4245" data-name="Rectangle 4245" width="40.971" height="40.971" transform="translate(53.459 112.13) rotate(-45)" fill="#250221"/>
      <rect id="Rectangle_4246" data-name="Rectangle 4246" width="40.969" height="40.969" rx="20.485" transform="translate(53.46 28.97) rotate(-45)" fill="#250221"/>
      <rect id="Rectangle_4247" data-name="Rectangle 4247" width="58.283" height="58.286" transform="translate(0 70.546) rotate(-44.997)" fill="#8a1739"/>
      <rect id="Rectangle_4248" data-name="Rectangle 4248" width="58.286" height="58.286" transform="matrix(0.707, -0.707, 0.707, 0.707, 82.427, 70.552)" fill="#8a1739"/>
    </g>
    <path id="Path_9930" data-name="Path 9930" d="M15.114-78.25a5.836,5.836,0,0,0-2.493.52,5.311,5.311,0,0,0-1.908,1.5,7,7,0,0,0-1.221,2.377,10.748,10.748,0,0,0-.43,3.161,12.409,12.409,0,0,0,.379,3.219A6.534,6.534,0,0,0,10.578-65.1a4.885,4.885,0,0,0,1.889,1.465,6.486,6.486,0,0,0,2.647.5,10.142,10.142,0,0,0,2.172-.225q1.028-.225,2.03-.52V-61.8q-.5.193-1,.341a8.7,8.7,0,0,1-1.047.238q-.546.09-1.169.135t-1.381.045a8.834,8.834,0,0,1-3.649-.694A6.716,6.716,0,0,1,8.516-63.7a8.437,8.437,0,0,1-1.5-3.058,14.993,14.993,0,0,1-.488-3.958,12.944,12.944,0,0,1,.559-3.906,8.618,8.618,0,0,1,1.645-3.045,7.4,7.4,0,0,1,2.692-1.979,9.078,9.078,0,0,1,3.688-.707,12.055,12.055,0,0,1,2.647.283,9.04,9.04,0,0,1,2.274.822l-1,2a11.262,11.262,0,0,0-1.76-.707A7.268,7.268,0,0,0,15.114-78.25ZM31.845-61.3v-9.085a3.931,3.931,0,0,0-.675-2.506,2.557,2.557,0,0,0-2.114-.835,4.076,4.076,0,0,0-1.748.334,2.734,2.734,0,0,0-1.137.989,4.462,4.462,0,0,0-.617,1.606,11.447,11.447,0,0,0-.186,2.184V-61.3H23.03V-81.295h2.339v5.937l-.1,1.85h.128a4.023,4.023,0,0,1,.765-.957,4.426,4.426,0,0,1,.97-.675,4.571,4.571,0,0,1,1.118-.4,5.669,5.669,0,0,1,1.208-.129A4.713,4.713,0,0,1,33-74.44a5.49,5.49,0,0,1,1.189,3.926V-61.3Zm14.636,0-.475-1.953h-.1a8.21,8.21,0,0,1-.848,1,4.056,4.056,0,0,1-.925.687,4.114,4.114,0,0,1-1.118.4,7.049,7.049,0,0,1-1.426.128,5.093,5.093,0,0,1-1.632-.251,3.43,3.43,0,0,1-1.291-.771,3.573,3.573,0,0,1-.855-1.311,5.135,5.135,0,0,1-.308-1.87,3.828,3.828,0,0,1,1.484-3.238A7.879,7.879,0,0,1,43.5-69.717l2.364-.09v-.887a4.754,4.754,0,0,0-.186-1.439,2.279,2.279,0,0,0-.54-.932,2.025,2.025,0,0,0-.874-.508,4.188,4.188,0,0,0-1.189-.154,6.2,6.2,0,0,0-1.985.308,12.624,12.624,0,0,0-1.767.745l-.822-1.76a11.662,11.662,0,0,1,2.12-.874,8.3,8.3,0,0,1,2.454-.36,8.615,8.615,0,0,1,2.268.263,3.774,3.774,0,0,1,1.581.835,3.5,3.5,0,0,1,.932,1.458,6.568,6.568,0,0,1,.308,2.146V-61.3Zm-4.292-1.632a4.2,4.2,0,0,0,1.452-.244,3.1,3.1,0,0,0,1.156-.739,3.428,3.428,0,0,0,.765-1.246,5.119,5.119,0,0,0,.276-1.767V-68.2L44-68.111a9.443,9.443,0,0,0-1.94.257,3.439,3.439,0,0,0-1.253.572,2.086,2.086,0,0,0-.675.887,3.178,3.178,0,0,0-.206,1.176,2.2,2.2,0,0,0,.623,1.735A2.378,2.378,0,0,0,42.189-62.932ZM54.833-61.3H52.495V-75.41h2.339ZM52.315-79.226a1.423,1.423,0,0,1,.392-1.118,1.411,1.411,0,0,1,.97-.347,1.676,1.676,0,0,1,.533.084,1.139,1.139,0,0,1,.437.263,1.274,1.274,0,0,1,.3.456,1.8,1.8,0,0,1,.109.662,1.425,1.425,0,0,1-.4,1.112,1.4,1.4,0,0,1-.97.366,1.381,1.381,0,0,1-.97-.36A1.448,1.448,0,0,1,52.315-79.226Zm13.094,3.559q.373,0,.835.032a6.77,6.77,0,0,1,.8.1l-.308,2.159q-.36-.064-.739-.109a6.07,6.07,0,0,0-.713-.045,3.311,3.311,0,0,0-1.478.328,3.311,3.311,0,0,0-1.15.938,4.455,4.455,0,0,0-.745,1.465,6.415,6.415,0,0,0-.263,1.9V-61.3H59.305V-75.41h1.9l.283,2.583h.1q.321-.553.687-1.067A5.054,5.054,0,0,1,63.1-74.8a3.842,3.842,0,0,1,1.022-.63A3.289,3.289,0,0,1,65.409-75.667ZM86.7-61.3v-9.085a4.075,4.075,0,0,0-.642-2.506,2.354,2.354,0,0,0-1.992-.835,3.791,3.791,0,0,0-1.593.3,2.669,2.669,0,0,0-1.073.887,3.943,3.943,0,0,0-.61,1.452,9.271,9.271,0,0,0-.193,2V-61.3H78.246v-9.085a4.106,4.106,0,0,0-.636-2.506,2.336,2.336,0,0,0-1.985-.835,3.686,3.686,0,0,0-1.658.334,2.62,2.62,0,0,0-1.073.989,4.61,4.61,0,0,0-.578,1.606,12.272,12.272,0,0,0-.173,2.184V-61.3H69.8V-75.41h1.9l.334,1.9h.128a4.02,4.02,0,0,1,.732-.957,4.2,4.2,0,0,1,.932-.675,4.294,4.294,0,0,1,1.079-.4,5.287,5.287,0,0,1,1.163-.129,5.244,5.244,0,0,1,2.564.565,3.4,3.4,0,0,1,1.51,1.773h.1a4.162,4.162,0,0,1,.8-1.041,4.61,4.61,0,0,1,1.028-.726,4.961,4.961,0,0,1,1.176-.43,5.62,5.62,0,0,1,1.259-.141A4.394,4.394,0,0,1,87.9-74.44a5.656,5.656,0,0,1,1.137,3.926V-61.3Zm14.636,0-.475-1.953h-.1a8.21,8.21,0,0,1-.848,1,4.056,4.056,0,0,1-.925.687,4.114,4.114,0,0,1-1.118.4,7.049,7.049,0,0,1-1.426.128,5.093,5.093,0,0,1-1.632-.251,3.43,3.43,0,0,1-1.291-.771,3.572,3.572,0,0,1-.855-1.311,5.135,5.135,0,0,1-.308-1.87,3.828,3.828,0,0,1,1.484-3.238,7.879,7.879,0,0,1,4.517-1.234l2.364-.09v-.887a4.754,4.754,0,0,0-.186-1.439,2.279,2.279,0,0,0-.54-.932,2.025,2.025,0,0,0-.874-.508,4.188,4.188,0,0,0-1.189-.154,6.2,6.2,0,0,0-1.985.308,12.624,12.624,0,0,0-1.767.745l-.822-1.76a11.662,11.662,0,0,1,2.12-.874,8.3,8.3,0,0,1,2.454-.36,8.615,8.615,0,0,1,2.268.263,3.774,3.774,0,0,1,1.581.835,3.5,3.5,0,0,1,.932,1.458,6.567,6.567,0,0,1,.308,2.146V-61.3Zm-4.292-1.632a4.2,4.2,0,0,0,1.452-.244,3.1,3.1,0,0,0,1.156-.739,3.428,3.428,0,0,0,.765-1.246,5.119,5.119,0,0,0,.276-1.767V-68.2l-1.838.09a9.443,9.443,0,0,0-1.94.257,3.439,3.439,0,0,0-1.253.572,2.085,2.085,0,0,0-.675.887,3.178,3.178,0,0,0-.206,1.176,2.2,2.2,0,0,0,.623,1.735A2.378,2.378,0,0,0,97.045-62.932ZM116.166-61.3v-9.085a3.931,3.931,0,0,0-.675-2.506,2.557,2.557,0,0,0-2.114-.835,4.076,4.076,0,0,0-1.748.334,2.734,2.734,0,0,0-1.137.989,4.462,4.462,0,0,0-.617,1.606,11.447,11.447,0,0,0-.186,2.184V-61.3h-2.339V-75.41h1.9l.334,1.9h.128a4.023,4.023,0,0,1,.765-.957,4.426,4.426,0,0,1,.97-.675,4.571,4.571,0,0,1,1.118-.4,5.669,5.669,0,0,1,1.208-.129,4.713,4.713,0,0,1,3.54,1.227,5.49,5.49,0,0,1,1.189,3.926V-61.3Zm21.6,0-5.692-16.448h-.1q.077.951.128,1.889.051.81.084,1.7t.032,1.626V-61.3h-2.21V-80.087h3.547l5.294,15.317h.077l5.32-15.317h3.547V-61.3H145.4V-72.7q0-.668.026-1.529t.064-1.645q.051-.912.09-1.85h-.1L139.733-61.3Zm20.393.257a6.8,6.8,0,0,1-2.583-.475,5.538,5.538,0,0,1-2.011-1.388,6.3,6.3,0,0,1-1.3-2.262,9.489,9.489,0,0,1-.463-3.084,10.589,10.589,0,0,1,.424-3.123,6.93,6.93,0,0,1,1.2-2.332,5.137,5.137,0,0,1,1.844-1.458,5.533,5.533,0,0,1,2.371-.5,5.521,5.521,0,0,1,2.287.456,4.838,4.838,0,0,1,1.722,1.285,5.8,5.8,0,0,1,1.086,1.992,8.28,8.28,0,0,1,.379,2.576v1.452h-8.892a5.85,5.85,0,0,0,1.047,3.649,3.6,3.6,0,0,0,2.923,1.169,10.67,10.67,0,0,0,1.214-.064,9.448,9.448,0,0,0,1.079-.186,7.861,7.861,0,0,0,1.009-.308q.488-.186.989-.418v2.082q-.514.244-1.009.424a8.125,8.125,0,0,1-1.015.3,8.6,8.6,0,0,1-1.079.167Q158.815-61.044,158.159-61.044Zm-.578-12.683a2.889,2.889,0,0,0-2.319,1,4.971,4.971,0,0,0-1,2.917h6.322a6.885,6.885,0,0,0-.173-1.6,3.525,3.525,0,0,0-.54-1.24,2.5,2.5,0,0,0-.932-.8A3.018,3.018,0,0,0,157.581-73.726Zm14.662,12.683a6.8,6.8,0,0,1-2.583-.475,5.538,5.538,0,0,1-2.011-1.388,6.3,6.3,0,0,1-1.3-2.262,9.489,9.489,0,0,1-.463-3.084,10.589,10.589,0,0,1,.424-3.123,6.929,6.929,0,0,1,1.2-2.332,5.138,5.138,0,0,1,1.844-1.458,5.533,5.533,0,0,1,2.371-.5,5.521,5.521,0,0,1,2.287.456,4.838,4.838,0,0,1,1.722,1.285,5.8,5.8,0,0,1,1.086,1.992,8.28,8.28,0,0,1,.379,2.576v1.452H168.3a5.85,5.85,0,0,0,1.047,3.649,3.6,3.6,0,0,0,2.923,1.169,10.67,10.67,0,0,0,1.214-.064,9.448,9.448,0,0,0,1.079-.186,7.862,7.862,0,0,0,1.009-.308q.488-.186.989-.418v2.082q-.514.244-1.009.424a8.123,8.123,0,0,1-1.015.3,8.6,8.6,0,0,1-1.079.167Q172.9-61.044,172.243-61.044Zm-.578-12.683a2.889,2.889,0,0,0-2.319,1,4.971,4.971,0,0,0-1,2.917h6.322a6.885,6.885,0,0,0-.173-1.6,3.525,3.525,0,0,0-.54-1.24,2.5,2.5,0,0,0-.932-.8A3.018,3.018,0,0,0,171.664-73.726Zm13.351,10.768q.231,0,.52-.026t.559-.064q.27-.039.495-.09t.341-.09v1.773a3.287,3.287,0,0,1-.424.154,5.5,5.5,0,0,1-.565.135q-.308.058-.643.09t-.655.032a5.092,5.092,0,0,1-1.478-.206,2.737,2.737,0,0,1-1.176-.707,3.426,3.426,0,0,1-.777-1.356,6.954,6.954,0,0,1-.283-2.152v-8.185h-1.992V-74.69l1.992-1,1-2.955h1.349v3.238h3.547v1.76h-3.547v8.185a3.507,3.507,0,0,0,.4,1.876A1.461,1.461,0,0,0,185.015-62.958Zm6.99,1.658h-2.339V-75.41h2.339Zm-2.519-17.926a1.423,1.423,0,0,1,.392-1.118,1.411,1.411,0,0,1,.97-.347,1.676,1.676,0,0,1,.533.084,1.139,1.139,0,0,1,.437.263,1.275,1.275,0,0,1,.3.456,1.8,1.8,0,0,1,.109.662,1.425,1.425,0,0,1-.4,1.112,1.4,1.4,0,0,1-.97.366,1.381,1.381,0,0,1-.97-.36A1.448,1.448,0,0,1,189.487-79.226ZM205.293-61.3v-9.085a3.931,3.931,0,0,0-.675-2.506,2.557,2.557,0,0,0-2.114-.835,4.076,4.076,0,0,0-1.748.334,2.735,2.735,0,0,0-1.137.989A4.462,4.462,0,0,0,199-70.8a11.446,11.446,0,0,0-.186,2.184V-61.3h-2.339V-75.41h1.9l.334,1.9h.129a4.023,4.023,0,0,1,.765-.957,4.427,4.427,0,0,1,.97-.675,4.571,4.571,0,0,1,1.118-.4,5.669,5.669,0,0,1,1.208-.129,4.713,4.713,0,0,1,3.54,1.227,5.49,5.49,0,0,1,1.189,3.926V-61.3ZM222.846-75.41v1.452l-2.531.347a3.866,3.866,0,0,1,.6,1.15,4.8,4.8,0,0,1,.244,1.587,5.236,5.236,0,0,1-.3,1.805,3.835,3.835,0,0,1-.912,1.433,4.254,4.254,0,0,1-1.51.944,5.9,5.9,0,0,1-2.095.341q-.283,0-.565-.006a2.552,2.552,0,0,1-.463-.045,4.45,4.45,0,0,0-.43.289,2.4,2.4,0,0,0-.386.366,1.811,1.811,0,0,0-.283.463,1.431,1.431,0,0,0-.109.565.929.929,0,0,0,.154.559,1,1,0,0,0,.418.328,2.108,2.108,0,0,0,.623.154,7.122,7.122,0,0,0,.758.039h2.262a5.888,5.888,0,0,1,2.017.3,3.686,3.686,0,0,1,1.343.816,3.008,3.008,0,0,1,.752,1.214,4.7,4.7,0,0,1,.231,1.484,4.766,4.766,0,0,1-.418,2.03,3.886,3.886,0,0,1-1.279,1.523,6.346,6.346,0,0,1-2.178.957,12.726,12.726,0,0,1-3.1.334,9.525,9.525,0,0,1-2.4-.27,4.853,4.853,0,0,1-1.709-.784,3.3,3.3,0,0,1-1.022-1.24,3.813,3.813,0,0,1-.341-1.638,3.418,3.418,0,0,1,.251-1.356,3.182,3.182,0,0,1,.675-1.009,3.577,3.577,0,0,1,.983-.694,5.6,5.6,0,0,1,1.163-.411,2.073,2.073,0,0,1-.887-.771,2.146,2.146,0,0,1-.347-1.208,2.26,2.26,0,0,1,.411-1.356,4.375,4.375,0,0,1,1.3-1.112,3.613,3.613,0,0,1-1.009-.636,3.994,3.994,0,0,1-.771-.925,4.582,4.582,0,0,1-.488-1.137,4.676,4.676,0,0,1-.173-1.272,6.052,6.052,0,0,1,.321-2.043,4.058,4.058,0,0,1,.951-1.529,4.145,4.145,0,0,1,1.568-.964,6.5,6.5,0,0,1,2.184-.334,7.129,7.129,0,0,1,.983.071,4.869,4.869,0,0,1,.855.186ZM212.424-58.988a2.333,2.333,0,0,0,.167.887,1.7,1.7,0,0,0,.546.707,2.871,2.871,0,0,0,1,.469,5.87,5.87,0,0,0,1.548.173,6.9,6.9,0,0,0,3.579-.739,2.361,2.361,0,0,0,1.189-2.127,2.549,2.549,0,0,0-.154-.964,1.2,1.2,0,0,0-.508-.585,2.439,2.439,0,0,0-.932-.289,10.936,10.936,0,0,0-1.413-.077h-2.262a4.553,4.553,0,0,0-.938.1,2.411,2.411,0,0,0-.893.385,2.17,2.17,0,0,0-.668.777A2.713,2.713,0,0,0,212.424-58.988Zm1.182-11.886a3.06,3.06,0,0,0,.694,2.2,2.6,2.6,0,0,0,1.966.72,2.527,2.527,0,0,0,1.947-.713,3.218,3.218,0,0,0,.662-2.242,3.39,3.39,0,0,0-.675-2.326,2.508,2.508,0,0,0-1.96-.745,2.468,2.468,0,0,0-1.953.771A3.45,3.45,0,0,0,213.606-70.874Zm29.054,4.549a5.367,5.367,0,0,1-.443,2.229,4.571,4.571,0,0,1-1.266,1.664,5.626,5.626,0,0,1-2,1.034,9.279,9.279,0,0,1-2.66.353,14.948,14.948,0,0,1-2.666-.225,7.3,7.3,0,0,1-2.075-.662v-2.287q.437.206,1,.4t1.176.353q.617.154,1.272.251a8.911,8.911,0,0,0,1.3.1,4.9,4.9,0,0,0,3.039-.771,2.643,2.643,0,0,0,.983-2.21,3.543,3.543,0,0,0-.186-1.208,2.392,2.392,0,0,0-.655-.944,5.769,5.769,0,0,0-1.253-.835q-.784-.4-1.979-.88a11.744,11.744,0,0,1-1.985-.983,5.732,5.732,0,0,1-1.388-1.2,4.463,4.463,0,0,1-.81-1.516,6.494,6.494,0,0,1-.263-1.927,4.743,4.743,0,0,1,.411-2.017,4.183,4.183,0,0,1,1.156-1.5,5.214,5.214,0,0,1,1.78-.932,7.664,7.664,0,0,1,2.281-.321,11.964,11.964,0,0,1,2.75.289,11.018,11.018,0,0,1,2.172.739l-.861,2a12.23,12.23,0,0,0-1.9-.649,8.652,8.652,0,0,0-2.191-.276,3.661,3.661,0,0,0-2.429.726,2.431,2.431,0,0,0-.861,1.96,3.729,3.729,0,0,0,.193,1.266,2.509,2.509,0,0,0,.643.964,5.037,5.037,0,0,0,1.189.81q.739.379,1.818.8a17.567,17.567,0,0,1,2.05.951,6.149,6.149,0,0,1,1.471,1.105,4.12,4.12,0,0,1,.893,1.426A5.477,5.477,0,0,1,242.66-66.325ZM244-75.41h2.429l2.763,7.877q.18.514.366,1.079t.347,1.131q.161.565.276,1.092a9.74,9.74,0,0,1,.167.977h.077q.064-.321.206-.874t.315-1.176q.173-.623.36-1.227t.328-1.028l2.557-7.851H256.6l-5.577,15.947a15.193,15.193,0,0,1-.777,1.87,5.789,5.789,0,0,1-.97,1.407,3.844,3.844,0,0,1-1.3.893,4.541,4.541,0,0,1-1.773.315,8.2,8.2,0,0,1-1.156-.071q-.488-.071-.835-.148V-57.06a5.692,5.692,0,0,0,.681.109,7.922,7.922,0,0,0,.861.045,3.43,3.43,0,0,0,1.067-.148,2.32,2.32,0,0,0,.784-.43,2.608,2.608,0,0,0,.572-.694,5.976,5.976,0,0,0,.43-.938l.732-2.056Zm23.412,10.241a4.09,4.09,0,0,1-.373,1.8,3.471,3.471,0,0,1-1.073,1.291,4.84,4.84,0,0,1-1.69.777,8.853,8.853,0,0,1-2.223.257,11.123,11.123,0,0,1-2.4-.225,6.244,6.244,0,0,1-1.76-.662v-2.133q.4.206.887.4a9.978,9.978,0,0,0,1.028.353,10.237,10.237,0,0,0,1.112.251,6.832,6.832,0,0,0,1.137.1,6.131,6.131,0,0,0,1.42-.141,2.709,2.709,0,0,0,.951-.4,1.562,1.562,0,0,0,.533-.642,2.065,2.065,0,0,0,.167-.842,1.923,1.923,0,0,0-.128-.72,1.8,1.8,0,0,0-.469-.636,4.655,4.655,0,0,0-.932-.636q-.591-.321-1.516-.72t-1.664-.784a5.749,5.749,0,0,1-1.253-.861,3.314,3.314,0,0,1-.79-1.1,3.643,3.643,0,0,1-.276-1.484,3.5,3.5,0,0,1,.353-1.6,3.289,3.289,0,0,1,1-1.176,4.582,4.582,0,0,1,1.542-.72,7.649,7.649,0,0,1,2-.244,9.029,9.029,0,0,1,2.281.27,11.2,11.2,0,0,1,1.96.707l-.81,1.889a15.88,15.88,0,0,0-1.715-.649,5.952,5.952,0,0,0-1.793-.276,3.481,3.481,0,0,0-1.94.43,1.4,1.4,0,0,0-.63,1.227,1.924,1.924,0,0,0,.148.784,1.745,1.745,0,0,0,.508.63,5.189,5.189,0,0,0,.964.6q.6.3,1.5.675.925.386,1.651.771a5.727,5.727,0,0,1,1.24.867,3.321,3.321,0,0,1,.784,1.1A3.672,3.672,0,0,1,267.409-65.168Zm7.7,2.21q.231,0,.52-.026t.559-.064q.27-.039.495-.09t.341-.09v1.773a3.288,3.288,0,0,1-.424.154,5.5,5.5,0,0,1-.565.135q-.308.058-.642.09t-.655.032a5.092,5.092,0,0,1-1.478-.206,2.738,2.738,0,0,1-1.176-.707,3.426,3.426,0,0,1-.777-1.356,6.954,6.954,0,0,1-.283-2.152v-8.185h-1.992V-74.69l1.992-1,1-2.955h1.349v3.238h3.547v1.76h-3.547v8.185a3.508,3.508,0,0,0,.4,1.876A1.461,1.461,0,0,0,275.106-62.958Zm10.228,1.915a6.8,6.8,0,0,1-2.583-.475,5.538,5.538,0,0,1-2.011-1.388,6.3,6.3,0,0,1-1.3-2.262,9.489,9.489,0,0,1-.463-3.084,10.59,10.59,0,0,1,.424-3.123,6.93,6.93,0,0,1,1.2-2.332,5.138,5.138,0,0,1,1.844-1.458,5.533,5.533,0,0,1,2.371-.5,5.521,5.521,0,0,1,2.287.456,4.838,4.838,0,0,1,1.722,1.285,5.8,5.8,0,0,1,1.086,1.992,8.281,8.281,0,0,1,.379,2.576v1.452H281.39a5.85,5.85,0,0,0,1.047,3.649,3.6,3.6,0,0,0,2.923,1.169,10.669,10.669,0,0,0,1.214-.064,9.448,9.448,0,0,0,1.079-.186,7.865,7.865,0,0,0,1.009-.308q.488-.186.989-.418v2.082q-.514.244-1.009.424a8.124,8.124,0,0,1-1.015.3,8.6,8.6,0,0,1-1.079.167Q285.99-61.044,285.334-61.044Zm-.578-12.683a2.889,2.889,0,0,0-2.319,1,4.971,4.971,0,0,0-1,2.917h6.322a6.885,6.885,0,0,0-.173-1.6,3.524,3.524,0,0,0-.54-1.24,2.5,2.5,0,0,0-.932-.8A3.018,3.018,0,0,0,284.756-73.726ZM310.739-61.3v-9.085a4.075,4.075,0,0,0-.642-2.506,2.354,2.354,0,0,0-1.992-.835,3.791,3.791,0,0,0-1.593.3,2.669,2.669,0,0,0-1.073.887,3.943,3.943,0,0,0-.61,1.452,9.273,9.273,0,0,0-.193,2V-61.3h-2.352v-9.085a4.106,4.106,0,0,0-.636-2.506,2.336,2.336,0,0,0-1.985-.835,3.686,3.686,0,0,0-1.658.334,2.62,2.62,0,0,0-1.073.989,4.611,4.611,0,0,0-.578,1.606,12.274,12.274,0,0,0-.173,2.184V-61.3h-2.339V-75.41h1.9l.334,1.9h.129a4.02,4.02,0,0,1,.732-.957,4.2,4.2,0,0,1,.932-.675,4.294,4.294,0,0,1,1.079-.4,5.288,5.288,0,0,1,1.163-.129,5.244,5.244,0,0,1,2.564.565,3.4,3.4,0,0,1,1.51,1.773h.1a4.162,4.162,0,0,1,.8-1.041,4.61,4.61,0,0,1,1.028-.726,4.961,4.961,0,0,1,1.176-.43,5.62,5.62,0,0,1,1.259-.141,4.394,4.394,0,0,1,3.386,1.227,5.656,5.656,0,0,1,1.137,3.926V-61.3Z" transform="translate(-3843 -7029.775)" fill="#8a1739"/>
    <path id="Path_9929" data-name="Path 9929" d="M19.237-63.845a7,7,0,0,1-1.333-.124,4.188,4.188,0,0,1-1.195-.421,3.547,3.547,0,0,1-1-.815,4.383,4.383,0,0,1-.753-1.305q-.539.124-1.07.193a8.2,8.2,0,0,1-1.057.069,6.888,6.888,0,0,1-2.016-.29,4.9,4.9,0,0,1-1.671-.87A4.155,4.155,0,0,1,8-68.865a4.723,4.723,0,0,1-.421-2.065,5.318,5.318,0,0,1,.573-2.486,6.473,6.473,0,0,1,1.533-1.933,8.434,8.434,0,0,1,2.224-1.367,12.229,12.229,0,0,1,2.659-.787v-1.7H17.51v9.115a9.6,9.6,0,0,0,.055,1.1,1.5,1.5,0,0,0,.3.773,1.449,1.449,0,0,0,.718.456,4.458,4.458,0,0,0,1.305.152v3.756ZM14.569-73.927q-.842.166-1.588.387A6.387,6.387,0,0,0,11.669-73a2.921,2.921,0,0,0-.9.746,1.6,1.6,0,0,0-.331,1.008,1.22,1.22,0,0,0,.2.732,1.378,1.378,0,0,0,.532.435,2.36,2.36,0,0,0,.76.207,7.878,7.878,0,0,0,.884.048,7.878,7.878,0,0,0,.884-.048,6.675,6.675,0,0,0,.87-.159Zm-1.947-7.858H9.376V-84.7h3.245Zm4.723,0H14.1V-84.7h3.245Zm4.364,17.94H19.886a.774.774,0,0,1-.725-.5,3.226,3.226,0,0,1-.242-1.374,3.226,3.226,0,0,1,.242-1.374.774.774,0,0,1,.725-.5h1.961a8.893,8.893,0,0,0,1.008-.048,1.489,1.489,0,0,0,.677-.228,1,1,0,0,0,.38-.546,3.46,3.46,0,0,0,.117-1.015V-76h2.942v5.607q0,.718.041,1.243a1.816,1.816,0,0,0,.269.87,1.332,1.332,0,0,0,.7.511,4.277,4.277,0,0,0,1.347.166v3.756H28.7a5.054,5.054,0,0,1-2.058-.38,2.457,2.457,0,0,1-1.257-1.208H25.3a3.408,3.408,0,0,1-.8.787,4.287,4.287,0,0,1-.918.483,4.536,4.536,0,0,1-.96.249A6.46,6.46,0,0,1,21.709-63.845Zm5.11-17.788q-.318-.069-.6-.11a3.279,3.279,0,0,0-.449-.041,1.561,1.561,0,0,0-.849.214.805.805,0,0,0-.338.739.888.888,0,0,0,.387.787,1.959,1.959,0,0,0,1.1.262h1.381v1.588H22.247V-79.7h1.1l.014-.055a3.271,3.271,0,0,1-.421-.7,1.787,1.787,0,0,1-.145-.711,1.967,1.967,0,0,1,.207-.9,2.16,2.16,0,0,1,.587-.711,2.754,2.754,0,0,1,.912-.47,3.956,3.956,0,0,1,1.181-.166,6.3,6.3,0,0,1,1.132.124Zm4.337,17.788H29.332a.774.774,0,0,1-.725-.5,3.226,3.226,0,0,1-.242-1.374,3.226,3.226,0,0,1,.242-1.374.774.774,0,0,1,.725-.5h1.961A8.893,8.893,0,0,0,32.3-67.65a1.489,1.489,0,0,0,.677-.228,1,1,0,0,0,.38-.546,3.46,3.46,0,0,0,.117-1.015V-76h2.942v5.607q0,.718.041,1.243a1.816,1.816,0,0,0,.269.87,1.332,1.332,0,0,0,.7.511,4.277,4.277,0,0,0,1.347.166v3.756h-.635a5.054,5.054,0,0,1-2.058-.38,2.457,2.457,0,0,1-1.257-1.208h-.083a3.408,3.408,0,0,1-.8.787,4.287,4.287,0,0,1-.918.483,4.536,4.536,0,0,1-.96.249A6.46,6.46,0,0,1,31.155-63.845Zm2,4.778H29.912V-61.98h3.245Zm4.723,0H34.636V-61.98h3.245ZM40.8-67.6a21.97,21.97,0,0,1,.8-3.252,17.915,17.915,0,0,1,1.043-2.507,10.668,10.668,0,0,1,1.167-1.823,7.915,7.915,0,0,1,1.2-1.215,4.423,4.423,0,0,1,1.132-.677,2.7,2.7,0,0,1,.953-.207,2.071,2.071,0,0,1,1.347.539,4.973,4.973,0,0,1,1.126,1.4,8.266,8.266,0,0,1,.766,1.933,8.315,8.315,0,0,1,.283,2.134,6.317,6.317,0,0,1-.325,2.037,3.452,3.452,0,0,1-1.07,1.581l.014.055h3.729v3.756H49.51l-.028.055a4.286,4.286,0,0,1,.836,1.381,4.261,4.261,0,0,1,.255,1.436,4.062,4.062,0,0,1-.3,1.547,4.163,4.163,0,0,1-.842,1.312,4.147,4.147,0,0,1-1.291.911,3.878,3.878,0,0,1-1.637.345,5.235,5.235,0,0,1-1.112-.131,4.838,4.838,0,0,1-1.208-.449,6.078,6.078,0,0,1-1.2-.842,5.86,5.86,0,0,1-1.077-1.3,8.115,8.115,0,0,1-.822-1.83,11.363,11.363,0,0,1-.463-2.438H38.779a.774.774,0,0,1-.725-.5,3.226,3.226,0,0,1-.242-1.374,3.226,3.226,0,0,1,.242-1.374.774.774,0,0,1,.725-.5Zm5.759-5.9a1.084,1.084,0,0,0-.642.38,4.983,4.983,0,0,0-.815,1.126,11.287,11.287,0,0,0-.8,1.844,14.537,14.537,0,0,0-.6,2.548h1.34a2.074,2.074,0,0,0,1.16-.325,2.876,2.876,0,0,0,.829-.822,3.823,3.823,0,0,0,.5-1.077,4.023,4.023,0,0,0,.166-1.1,4.042,4.042,0,0,0-.1-.9,4.866,4.866,0,0,0-.262-.829,2.354,2.354,0,0,0-.359-.608A.554.554,0,0,0,46.554-73.5ZM44.8-63.845H43.5a5.7,5.7,0,0,0,.421,1.388,4.1,4.1,0,0,0,.67,1.043,2.708,2.708,0,0,0,.856.649,2.307,2.307,0,0,0,.994.221,1.305,1.305,0,0,0,.946-.3.971.971,0,0,0,.311-.718,1.6,1.6,0,0,0-.214-.746,2.638,2.638,0,0,0-.6-.739,3.439,3.439,0,0,0-.918-.566A2.932,2.932,0,0,0,44.8-63.845Zm9.833,0H52.948a.774.774,0,0,1-.725-.5,3.226,3.226,0,0,1-.242-1.374,3.226,3.226,0,0,1,.242-1.374.774.774,0,0,1,.725-.5h1.823q.552,0,.987-.041a1.714,1.714,0,0,0,.732-.221,1.11,1.11,0,0,0,.449-.546,2.77,2.77,0,0,0,.152-1.029V-85.127h2.942v15.786a7.1,7.1,0,0,1-.456,2.755,4.236,4.236,0,0,1-1.208,1.678,4.252,4.252,0,0,1-1.726.836A8.789,8.789,0,0,1,54.633-63.845Zm9.543-.345V-85.127h2.942V-64.19Zm29.071-.387a8.855,8.855,0,0,1-2.134,5.718,7.431,7.431,0,0,1-5.559,1.906,9.255,9.255,0,0,1-3.211-.49A5.255,5.255,0,0,1,80.19-58.88a5.759,5.759,0,0,1-1.215-2.341,12.3,12.3,0,0,1-.38-3.218q0-.5.028-.994t.09-1.05q.062-.552.159-1.188t.249-1.395h2.886q-.138.856-.228,1.505t-.138,1.153q-.048.5-.069.9t-.021.753a7.812,7.812,0,0,0,.18,1.782,2.759,2.759,0,0,0,.635,1.257,2.729,2.729,0,0,0,1.243.739,6.955,6.955,0,0,0,2,.242,7.221,7.221,0,0,0,2.334-.325,3.259,3.259,0,0,0,1.5-1.008,4.106,4.106,0,0,0,.794-1.733,11.591,11.591,0,0,0,.235-2.5q0-.594-.035-1.208t-.117-1.367q-.083-.753-.2-1.719t-.283-2.251h2.955q.152,1.326.276,2.3t.207,1.761a1.48,1.48,0,0,0,.186.621.932.932,0,0,0,.414.359,2.128,2.128,0,0,0,.67.166,9.262,9.262,0,0,0,.939.041,5.587,5.587,0,0,0,.746-.048,1.52,1.52,0,0,0,.642-.235,1.308,1.308,0,0,0,.456-.552,2.387,2.387,0,0,0,.173-1V-73.36h2.942v2.969q0,.718.041,1.243a2.043,2.043,0,0,0,.242.87,1.192,1.192,0,0,0,.635.511,3.56,3.56,0,0,0,1.222.166,7.081,7.081,0,0,0,.794-.041,1.366,1.366,0,0,0,.635-.228,1.215,1.215,0,0,0,.421-.552,2.723,2.723,0,0,0,.152-1.015V-76h2.942v5.524q0,.732.041,1.271a1.884,1.884,0,0,0,.269.891,1.387,1.387,0,0,0,.7.532,3.969,3.969,0,0,0,1.347.18v3.756h-.635a5.029,5.029,0,0,1-1.906-.318,2.711,2.711,0,0,1-1.271-1.1,3.6,3.6,0,0,1-.78.7,3.991,3.991,0,0,1-.877.435,4.655,4.655,0,0,1-.932.221,7.2,7.2,0,0,1-.932.062,8.3,8.3,0,0,1-1.07-.069,4.262,4.262,0,0,1-1.008-.255,3.181,3.181,0,0,1-.87-.511,2.654,2.654,0,0,1-.656-.822h-.083a3.045,3.045,0,0,1-.6.7,3.769,3.769,0,0,1-.78.518,4.132,4.132,0,0,1-.891.325,3.943,3.943,0,0,1-.918.11A5.054,5.054,0,0,1,94.422-64a2.437,2.437,0,0,1-1.077-.608Zm18.465.732H109.89a.774.774,0,0,1-.725-.5,3.226,3.226,0,0,1-.242-1.374,3.226,3.226,0,0,1,.242-1.374.774.774,0,0,1,.725-.5h1.961a8.893,8.893,0,0,0,1.008-.048,1.489,1.489,0,0,0,.677-.228,1,1,0,0,0,.38-.546,3.46,3.46,0,0,0,.117-1.015V-76h2.942v5.607q0,.718.041,1.243a1.816,1.816,0,0,0,.269.87,1.332,1.332,0,0,0,.7.511,4.277,4.277,0,0,0,1.347.166v3.756H118.7a5.054,5.054,0,0,1-2.058-.38,2.457,2.457,0,0,1-1.257-1.208H115.3a3.409,3.409,0,0,1-.8.787,4.286,4.286,0,0,1-.918.483,4.536,4.536,0,0,1-.96.249A6.46,6.46,0,0,1,111.713-63.845Zm2,4.778H110.47V-61.98h3.245Zm4.723,0h-3.245V-61.98h3.245Zm2.721-4.778h-1.823a.774.774,0,0,1-.725-.5,3.226,3.226,0,0,1-.242-1.374,3.226,3.226,0,0,1,.242-1.374.774.774,0,0,1,.725-.5H121.3q.552,0,.967-.041a1.482,1.482,0,0,0,.684-.221,1.058,1.058,0,0,0,.4-.546,3.172,3.172,0,0,0,.131-1.029V-76h2.942v6.657a7.4,7.4,0,0,1-.435,2.755,4.2,4.2,0,0,1-1.16,1.678,4.034,4.034,0,0,1-1.678.836A8.523,8.523,0,0,1,121.159-63.845Zm5.345-18.34q-.318-.069-.6-.11a3.278,3.278,0,0,0-.449-.041,1.561,1.561,0,0,0-.849.214.805.805,0,0,0-.338.739.888.888,0,0,0,.387.787,1.959,1.959,0,0,0,1.1.262h1.381v1.588h-5.207v-1.505h1.1l.014-.055a3.271,3.271,0,0,1-.421-.7,1.787,1.787,0,0,1-.145-.711,1.967,1.967,0,0,1,.207-.9,2.16,2.16,0,0,1,.587-.711,2.754,2.754,0,0,1,.912-.47,3.957,3.957,0,0,1,1.181-.166,6.3,6.3,0,0,1,1.132.124Zm2.279,20.909q.953.276,1.6.394a6.6,6.6,0,0,0,1.181.117,3.716,3.716,0,0,0,1.823-.394,2.938,2.938,0,0,0,1.1-1.057,4.3,4.3,0,0,0,.546-1.533,11.167,11.167,0,0,0,.145-1.837,13.731,13.731,0,0,0-.124-1.844,17.677,17.677,0,0,0-.373-1.913q-.249-.994-.615-2.1t-.836-2.417h3.259q.428,1.063.753,2.154t.546,2.182q.221,1.091.331,2.141a19.279,19.279,0,0,1,.11,2.016,11.968,11.968,0,0,1-.532,3.784,7.531,7.531,0,0,1-1.436,2.617,5.625,5.625,0,0,1-2.092,1.519,6.522,6.522,0,0,1-2.514.49,6.919,6.919,0,0,1-1.333-.131,10.416,10.416,0,0,1-1.54-.449ZM166.251-76h2.942v6.463a6.192,6.192,0,0,1-.38,2.293,4.331,4.331,0,0,1-1.07,1.6,5.173,5.173,0,0,1-1.664,1.022,10.926,10.926,0,0,1-2.175.58,20.788,20.788,0,0,1-2.583.256q-1.381.055-2.9.055-1.6,0-3.011-.028a25.664,25.664,0,0,1-2.6-.173,12.63,12.63,0,0,1-2.141-.435,4.856,4.856,0,0,1-1.63-.829,3.768,3.768,0,0,1-.836-.9,5.038,5.038,0,0,1-.546-1.091,6.2,6.2,0,0,1-.3-1.2,8.682,8.682,0,0,1-.09-1.243,12.2,12.2,0,0,1,.145-1.892q.145-.925.38-1.837h2.955q-.111.511-.2.918t-.145.76q-.055.352-.083.684t-.028.677a3.886,3.886,0,0,0,.145,1.091,1.77,1.77,0,0,0,.67.9,3,3,0,0,0,1.043.49,9.87,9.87,0,0,0,1.581.269q.953.1,2.272.117t3.1.021q2.154,0,3.542-.048a10.116,10.116,0,0,0,2.182-.262,1.9,1.9,0,0,0,1.1-.656,2.11,2.11,0,0,0,.311-1.229Zm-8.411-2.776h-3.245v-2.914h3.245Zm4.723,0h-3.245v-2.914h3.245Zm13.507-4.309,6.2,18.52h-3.176l-6.242-18.52Zm2.707,19.349q-1.34,0-2.707-.1t-2.942-.331l-.7-3.6q1.091.124,1.989.221t1.692.159q.794.062,1.554.09t1.588.028a15.319,15.319,0,0,0,1.775-.083,2.611,2.611,0,0,0,1.077-.331,1.258,1.258,0,0,0,.539-.684,3.688,3.688,0,0,0,.145-1.139v-15.62h2.942v14.736a11.363,11.363,0,0,0,.062,1.291,1.843,1.843,0,0,0,.3.863,1.332,1.332,0,0,0,.711.483,4.4,4.4,0,0,0,1.291.152v3.756h-.414a4.251,4.251,0,0,1-1.851-.359,2.908,2.908,0,0,1-1.229-1.16h-.1a3.916,3.916,0,0,1-1.1.842,6.216,6.216,0,0,1-1.353.5,9.082,9.082,0,0,1-1.561.235Q179.647-63.734,178.777-63.734Zm11.131-.11h-1.823a.774.774,0,0,1-.725-.5,3.226,3.226,0,0,1-.242-1.374,3.226,3.226,0,0,1,.242-1.374.774.774,0,0,1,.725-.5h1.961q.552,0,.967-.041a1.482,1.482,0,0,0,.684-.221,1.058,1.058,0,0,0,.4-.546,3.172,3.172,0,0,0,.131-1.029V-76h2.942v6.657a7.4,7.4,0,0,1-.435,2.755,4.2,4.2,0,0,1-1.16,1.678,4.034,4.034,0,0,1-1.678.836A8.523,8.523,0,0,1,189.908-63.845Zm5.151,4.64h-3.246v-2.914h3.246ZM204-63.845a5.135,5.135,0,0,1-2.313-.456,3.73,3.73,0,0,1-1.436-1.236,4.807,4.807,0,0,1-.732-1.823,11.745,11.745,0,0,1-.2-2.217V-85.127h2.942v14.736a10.377,10.377,0,0,0,.069,1.305,1.9,1.9,0,0,0,.3.863,1.3,1.3,0,0,0,.7.476,4.519,4.519,0,0,0,1.284.145v3.756Zm4.516-3.756a5.955,5.955,0,0,1-1.616-1.816,4.546,4.546,0,0,1-.58-2.272,6.241,6.241,0,0,1,.18-1.464,7.208,7.208,0,0,1,.511-1.436,7.5,7.5,0,0,1,.787-1.291,6.607,6.607,0,0,1,.994-1.057,4.352,4.352,0,0,1,1.16-.711,3.313,3.313,0,0,1,1.271-.255,3.159,3.159,0,0,1,1.443.345,4.7,4.7,0,0,1,1.264.946,7.25,7.25,0,0,1,1.043,1.395,10.225,10.225,0,0,1,.787,1.7,11.536,11.536,0,0,1,.5,1.871,10.751,10.751,0,0,1,.173,1.892,5.89,5.89,0,0,1-.345,2.072q.29.028.566.041l.587.028q.311.014.684.014h.87v3.756H218.3q-.608,0-1.291-.048t-1.374-.145q-.691-.1-1.36-.255a9.975,9.975,0,0,1-1.25-.38,9.283,9.283,0,0,1-1.526.456,15.871,15.871,0,0,1-1.581.249q-.787.083-1.533.1t-1.367.021h-2.4a.774.774,0,0,1-.725-.5,3.226,3.226,0,0,1-.242-1.374,3.226,3.226,0,0,1,.242-1.374.774.774,0,0,1,.725-.5H206q.262,0,.635.021l.739.041q.366.021.67.035t.428.014Zm2.541-6.463a1.136,1.136,0,0,0-.691.249,2.552,2.552,0,0,0-.58.615,3.4,3.4,0,0,0-.394.773,2.227,2.227,0,0,0-.145.739,1.666,1.666,0,0,0,.131.587,2.512,2.512,0,0,0,.525.76,6.975,6.975,0,0,0,1.126.925,14.906,14.906,0,0,0,1.934,1.084.939.939,0,0,0,.249-.325,2.565,2.565,0,0,0,.159-.421,2.486,2.486,0,0,0,.083-.442q.021-.221.021-.387a4.731,4.731,0,0,0-.2-1.243,7.038,7.038,0,0,0-.539-1.367,4.656,4.656,0,0,0-.773-1.1A1.266,1.266,0,0,0,211.052-74.065Zm-.829-6.7h-3.246v-2.914h3.246Zm4.723,0H211.7v-2.914h3.246Zm12.9,16.918a6.609,6.609,0,0,1-1.4-.145,6.715,6.715,0,0,1-1.271-.407A7.831,7.831,0,0,1,224.041-65a6.339,6.339,0,0,1-.96-.76,4.375,4.375,0,0,1-1.878,1.492,6.224,6.224,0,0,1-2.32.428h-.1a.774.774,0,0,1-.725-.5,3.226,3.226,0,0,1-.242-1.374,3.226,3.226,0,0,1,.242-1.374.774.774,0,0,1,.725-.5h.193a2.963,2.963,0,0,0,1.436-.311,3.138,3.138,0,0,0,.953-.794,4.667,4.667,0,0,0,.642-1.077q.255-.594.518-1.16a14.491,14.491,0,0,1,.822-1.547,6.089,6.089,0,0,1,1.043-1.284,4.6,4.6,0,0,1,1.367-.877,4.611,4.611,0,0,1,1.8-.325,4.849,4.849,0,0,1,2.355.552,5.318,5.318,0,0,1,1.692,1.429,6.225,6.225,0,0,1,1.015,1.954,7.069,7.069,0,0,1,.338,2.127,5.581,5.581,0,0,1-.359,2.023,4.665,4.665,0,0,1-1.022,1.609,4.638,4.638,0,0,1-1.609,1.057A5.646,5.646,0,0,1,227.846-63.845Zm-.387-7.43a2.418,2.418,0,0,0-1.008.2,2.681,2.681,0,0,0-.794.552,3.93,3.93,0,0,0-.628.836,7.578,7.578,0,0,0-.5,1.063,4.052,4.052,0,0,0,.628.442,3.985,3.985,0,0,0,.739.325,4.8,4.8,0,0,0,.9.193,8.957,8.957,0,0,0,1.1.062q.387,0,.766-.035a2.437,2.437,0,0,0,.677-.152,1.2,1.2,0,0,0,.476-.325.814.814,0,0,0,.18-.552,2.762,2.762,0,0,0-.124-.7,2.827,2.827,0,0,0-.421-.863,2.742,2.742,0,0,0-.787-.732A2.214,2.214,0,0,0,227.459-71.275Zm24.831-4.06a3.448,3.448,0,0,1,1.471.318,4.728,4.728,0,0,1,1.25.849,6.5,6.5,0,0,1,1.015,1.229,8.72,8.72,0,0,1,.76,1.471,8.9,8.9,0,0,1,.47,1.561,7.616,7.616,0,0,1,.159,1.505,5.247,5.247,0,0,1-.318,1.864,4.163,4.163,0,0,1-.9,1.443,4.045,4.045,0,0,1-1.381.932,4.58,4.58,0,0,1-1.768.331,6.855,6.855,0,0,1-1.36-.138q-.684-.138-1.347-.311t-1.284-.311a5.366,5.366,0,0,0-1.16-.138,2.068,2.068,0,0,0-.856.152,1.194,1.194,0,0,0-.511.421,1.624,1.624,0,0,0-.242.642,5.061,5.061,0,0,0-.062.829q0,.4.048.974t.159,1.291q.111.718.3,1.561t.483,1.768h-3.094q-.414-1.768-.642-3.142a15.16,15.16,0,0,1-.228-2.451,7.5,7.5,0,0,1,.249-2,5.353,5.353,0,0,1,.7-1.574,4.123,4.123,0,0,1,1.1-1.119,4.39,4.39,0,0,1,1.436-.635,16.953,16.953,0,0,1,.787-2.693,11.886,11.886,0,0,1,.967-1.954A7.306,7.306,0,0,1,249.556-74a5.588,5.588,0,0,1,1.043-.822,3.652,3.652,0,0,1,.939-.407A3.125,3.125,0,0,1,252.291-75.335Zm.746,7.9a3.36,3.36,0,0,0,.525-.041,1.481,1.481,0,0,0,.47-.152.845.845,0,0,0,.331-.318,1.037,1.037,0,0,0,.124-.539,2.946,2.946,0,0,0-.173-.863,4.757,4.757,0,0,0-.49-1.043,3.517,3.517,0,0,0-.766-.877,1.545,1.545,0,0,0-1-.366,1.513,1.513,0,0,0-.891.276,2.949,2.949,0,0,0-.725.76,5.858,5.858,0,0,0-.594,1.139q-.262.656-.483,1.416.456.083.911.186t.911.193q.456.09.911.159A6.262,6.262,0,0,0,253.037-67.436Zm12.637,3.591a5.135,5.135,0,0,1-2.313-.456,3.73,3.73,0,0,1-1.436-1.236,4.806,4.806,0,0,1-.732-1.823,11.742,11.742,0,0,1-.2-2.217V-85.127h2.942v14.736A10.376,10.376,0,0,0,264-69.086a1.9,1.9,0,0,0,.3.863,1.3,1.3,0,0,0,.7.476,4.52,4.52,0,0,0,1.284.145v3.756Zm.621,0a.774.774,0,0,1-.725-.5,3.226,3.226,0,0,1-.242-1.374,3.226,3.226,0,0,1,.242-1.374.774.774,0,0,1,.725-.5h4.723v3.756Zm4.723,0a.774.774,0,0,1-.725-.5,3.226,3.226,0,0,1-.242-1.374,3.226,3.226,0,0,1,.242-1.374.774.774,0,0,1,.725-.5h4.723v3.756ZM290.3-77.31a7.041,7.041,0,0,1,2.866.546,5.741,5.741,0,0,1,2.072,1.519,6.747,6.747,0,0,1,1.277,2.32A10.313,10.313,0,0,1,297-69.963a7.828,7.828,0,0,0,.083,1.008,1.6,1.6,0,0,0,.3.746,1.4,1.4,0,0,0,.7.456,4.254,4.254,0,0,0,1.277.152v3.756h-.414a5.23,5.23,0,0,1-2.03-.359,2.494,2.494,0,0,1-1.3-1.271h-.083a4.028,4.028,0,0,1-1.395.987,7.8,7.8,0,0,1-1.775.518,14.724,14.724,0,0,1-2.03.2q-1.07.035-2.161.035-1.119,0-2.6-.014t-3.1-.035l-3.232-.041q-1.616-.021-3-.021h-.5a.774.774,0,0,1-.725-.5,3.226,3.226,0,0,1-.242-1.374,3.226,3.226,0,0,1,.242-1.374.774.774,0,0,1,.725-.5h4.116V-85.127H282.8V-73.07l.083.028a12.854,12.854,0,0,1,1.45-1.678,9.941,9.941,0,0,1,1.733-1.353,8.785,8.785,0,0,1,2-.9A7.475,7.475,0,0,1,290.3-77.31Zm-.235,3.784a6.478,6.478,0,0,0-2.583.5,7.766,7.766,0,0,0-2.113,1.34,9.888,9.888,0,0,0-1.657,1.913,13.894,13.894,0,0,0-1.215,2.237q.235.014.67.021l.987.014,1.167.014q.615.007,1.2.007h2q1.768,0,2.852-.055a6.3,6.3,0,0,0,1.678-.262,1.3,1.3,0,0,0,.794-.621,2.682,2.682,0,0,0,.2-1.146,4.957,4.957,0,0,0-.276-1.726,3.262,3.262,0,0,0-.794-1.243,3.317,3.317,0,0,0-1.25-.746A5.139,5.139,0,0,0,290.063-73.526Zm1.077-5.8h-3.245v-2.914h3.245Zm10.04,15.482h-1.823a.774.774,0,0,1-.725-.5,3.226,3.226,0,0,1-.242-1.374,3.226,3.226,0,0,1,.242-1.374.774.774,0,0,1,.725-.5h1.961q.552,0,.967-.041a1.482,1.482,0,0,0,.684-.221,1.058,1.058,0,0,0,.4-.546,3.172,3.172,0,0,0,.131-1.029V-76h2.942v6.657a7.4,7.4,0,0,1-.435,2.755,4.2,4.2,0,0,1-1.16,1.678,4.034,4.034,0,0,1-1.678.836A8.524,8.524,0,0,1,301.18-63.845Zm5.428-14.929h-3.245v-2.914h3.245Z" transform="translate(-3843.792 -7064.023)" fill="#250221"/>
  </g>
</svg>
