<svg xmlns="http://www.w3.org/2000/svg" width="123.757" height="25.998" viewBox="0 0 123.757 25.998">
  <g id="logo_text" data-name="logo text" transform="translate(3210.629 6447.579)">
    <path id="Path_9930" data-name="Path 9930" d="M10-80.065a2.356,2.356,0,0,0-1.006.21,2.144,2.144,0,0,0-.77.6,2.827,2.827,0,0,0-.493.96,4.339,4.339,0,0,0-.174,1.276,5.01,5.01,0,0,0,.153,1.3,2.638,2.638,0,0,0,.459.957,1.972,1.972,0,0,0,.763.591,2.618,2.618,0,0,0,1.069.2,4.1,4.1,0,0,0,.877-.091q.415-.091.82-.21v.84q-.2.078-.4.137a3.511,3.511,0,0,1-.423.1q-.22.036-.472.054t-.558.018a3.566,3.566,0,0,1-1.473-.28,2.711,2.711,0,0,1-1.03-.794,3.406,3.406,0,0,1-.6-1.235,6.053,6.053,0,0,1-.2-1.6A5.226,5.226,0,0,1,6.756-78.6a3.479,3.479,0,0,1,.664-1.229,2.988,2.988,0,0,1,1.087-.8A3.665,3.665,0,0,1,10-80.916a4.867,4.867,0,0,1,1.069.114,3.649,3.649,0,0,1,.918.332l-.4.809a4.546,4.546,0,0,0-.711-.285A2.934,2.934,0,0,0,10-80.065Zm6.754,6.843v-3.668a1.587,1.587,0,0,0-.272-1.012,1.032,1.032,0,0,0-.853-.337,1.646,1.646,0,0,0-.706.135,1.1,1.1,0,0,0-.459.4,1.8,1.8,0,0,0-.249.648,4.621,4.621,0,0,0-.075.882v2.952h-.944v-8.072h.944v2.4l-.042.747h.052a1.624,1.624,0,0,1,.309-.386,1.787,1.787,0,0,1,.392-.272,1.845,1.845,0,0,1,.451-.161,2.289,2.289,0,0,1,.488-.052,1.9,1.9,0,0,1,1.429.5,2.216,2.216,0,0,1,.48,1.585v3.72Zm5.909,0-.192-.789h-.042a3.314,3.314,0,0,1-.342.4,1.638,1.638,0,0,1-.374.278,1.661,1.661,0,0,1-.451.161,2.846,2.846,0,0,1-.576.052,2.056,2.056,0,0,1-.659-.1,1.385,1.385,0,0,1-.521-.311,1.442,1.442,0,0,1-.345-.529,2.073,2.073,0,0,1-.125-.755,1.545,1.545,0,0,1,.6-1.307,3.181,3.181,0,0,1,1.823-.5l.955-.036v-.358a1.919,1.919,0,0,0-.075-.581.92.92,0,0,0-.218-.376.817.817,0,0,0-.353-.2,1.691,1.691,0,0,0-.48-.062,2.5,2.5,0,0,0-.8.125,5.1,5.1,0,0,0-.713.3l-.332-.711a4.708,4.708,0,0,1,.856-.353,3.35,3.35,0,0,1,.991-.145,3.478,3.478,0,0,1,.916.106,1.524,1.524,0,0,1,.638.337,1.411,1.411,0,0,1,.376.589,2.651,2.651,0,0,1,.125.866v3.9Zm-1.733-.659a1.7,1.7,0,0,0,.586-.1,1.25,1.25,0,0,0,.467-.3,1.384,1.384,0,0,0,.309-.5A2.067,2.067,0,0,0,22.4-75.5v-.514l-.742.036a3.812,3.812,0,0,0-.783.1,1.388,1.388,0,0,0-.506.231.842.842,0,0,0-.272.358,1.283,1.283,0,0,0-.083.475.89.89,0,0,0,.252.7A.96.96,0,0,0,20.927-73.882Zm5.1.659h-.944v-5.7h.944ZM25.014-80.46a.574.574,0,0,1,.158-.451.57.57,0,0,1,.392-.14.676.676,0,0,1,.215.034.46.46,0,0,1,.176.106.514.514,0,0,1,.119.184.726.726,0,0,1,.044.267.575.575,0,0,1-.163.449.564.564,0,0,1-.392.148.557.557,0,0,1-.392-.145A.584.584,0,0,1,25.014-80.46ZM30.3-79.023q.15,0,.337.013a2.734,2.734,0,0,1,.322.039l-.125.872q-.145-.026-.3-.044a2.451,2.451,0,0,0-.288-.018,1.336,1.336,0,0,0-.6.132,1.337,1.337,0,0,0-.464.379,1.8,1.8,0,0,0-.3.591,2.59,2.59,0,0,0-.106.765v3.071h-.944v-5.7H28.6l.114,1.043h.042q.13-.223.278-.431a2.04,2.04,0,0,1,.332-.366,1.551,1.551,0,0,1,.412-.254A1.328,1.328,0,0,1,30.3-79.023Zm8.6,5.8v-3.668a1.645,1.645,0,0,0-.259-1.012.95.95,0,0,0-.8-.337,1.531,1.531,0,0,0-.643.122,1.077,1.077,0,0,0-.433.358,1.592,1.592,0,0,0-.246.586,3.743,3.743,0,0,0-.078.807v3.144h-.949v-3.668a1.658,1.658,0,0,0-.257-1.012.943.943,0,0,0-.8-.337,1.488,1.488,0,0,0-.669.135,1.058,1.058,0,0,0-.433.4,1.861,1.861,0,0,0-.233.648,4.954,4.954,0,0,0-.07.882v2.952h-.944v-5.7h.768l.135.768h.052a1.623,1.623,0,0,1,.3-.386,1.7,1.7,0,0,1,.376-.272,1.733,1.733,0,0,1,.436-.161,2.135,2.135,0,0,1,.469-.052,2.117,2.117,0,0,1,1.035.228,1.371,1.371,0,0,1,.61.716h.042a1.68,1.68,0,0,1,.324-.42,1.861,1.861,0,0,1,.415-.293,2,2,0,0,1,.475-.174,2.269,2.269,0,0,1,.508-.057,1.774,1.774,0,0,1,1.367.5,2.283,2.283,0,0,1,.459,1.585v3.72Zm5.909,0-.192-.789h-.042a3.314,3.314,0,0,1-.342.4,1.637,1.637,0,0,1-.374.278,1.661,1.661,0,0,1-.451.161,2.846,2.846,0,0,1-.576.052,2.056,2.056,0,0,1-.659-.1,1.385,1.385,0,0,1-.521-.311,1.442,1.442,0,0,1-.345-.529,2.073,2.073,0,0,1-.125-.755,1.545,1.545,0,0,1,.6-1.307,3.181,3.181,0,0,1,1.823-.5l.955-.036v-.358a1.919,1.919,0,0,0-.075-.581.92.92,0,0,0-.218-.376.817.817,0,0,0-.353-.2,1.691,1.691,0,0,0-.48-.062,2.5,2.5,0,0,0-.8.125,5.1,5.1,0,0,0-.713.3l-.332-.711a4.708,4.708,0,0,1,.856-.353,3.35,3.35,0,0,1,.991-.145,3.478,3.478,0,0,1,.916.106,1.524,1.524,0,0,1,.638.337,1.411,1.411,0,0,1,.376.589,2.651,2.651,0,0,1,.125.866v3.9Zm-1.733-.659a1.7,1.7,0,0,0,.586-.1,1.25,1.25,0,0,0,.467-.3,1.384,1.384,0,0,0,.309-.5,2.067,2.067,0,0,0,.112-.713v-.514l-.742.036a3.812,3.812,0,0,0-.783.1,1.388,1.388,0,0,0-.506.231.842.842,0,0,0-.272.358,1.283,1.283,0,0,0-.083.475.89.89,0,0,0,.252.7A.96.96,0,0,0,43.073-73.882Zm7.719.659v-3.668A1.587,1.587,0,0,0,50.52-77.9a1.032,1.032,0,0,0-.853-.337,1.646,1.646,0,0,0-.706.135,1.1,1.1,0,0,0-.459.4,1.8,1.8,0,0,0-.249.648,4.621,4.621,0,0,0-.075.882v2.952h-.944v-5.7H48l.135.768h.052a1.624,1.624,0,0,1,.309-.386,1.787,1.787,0,0,1,.392-.272,1.845,1.845,0,0,1,.451-.161,2.289,2.289,0,0,1,.488-.052,1.9,1.9,0,0,1,1.429.5,2.216,2.216,0,0,1,.48,1.585v3.72Zm8.72,0-2.3-6.64h-.042q.031.384.052.763.021.327.034.687t.013.656v4.534h-.892v-7.584h1.432l2.137,6.184h.031l2.148-6.184h1.432v7.584h-.965v-4.6q0-.27.01-.617t.026-.664q.021-.368.036-.747h-.042l-2.319,6.63Zm8.233.1a2.744,2.744,0,0,1-1.043-.192,2.236,2.236,0,0,1-.812-.56,2.541,2.541,0,0,1-.527-.913,3.831,3.831,0,0,1-.187-1.245,4.275,4.275,0,0,1,.171-1.261,2.8,2.8,0,0,1,.482-.942,2.074,2.074,0,0,1,.744-.589,2.234,2.234,0,0,1,.957-.2,2.229,2.229,0,0,1,.923.184,1.953,1.953,0,0,1,.7.519,2.341,2.341,0,0,1,.438.8,3.343,3.343,0,0,1,.153,1.04v.586h-3.59a2.362,2.362,0,0,0,.423,1.473,1.455,1.455,0,0,0,1.18.472,4.306,4.306,0,0,0,.49-.026,3.816,3.816,0,0,0,.436-.075,3.173,3.173,0,0,0,.407-.125q.2-.075.4-.169v.84q-.208.1-.407.171a3.281,3.281,0,0,1-.41.119,3.474,3.474,0,0,1-.436.067Q68.01-73.119,67.745-73.119Zm-.233-5.12a1.166,1.166,0,0,0-.936.4,2.007,2.007,0,0,0-.4,1.178h2.552a2.78,2.78,0,0,0-.07-.646,1.423,1.423,0,0,0-.218-.5,1.009,1.009,0,0,0-.376-.322A1.219,1.219,0,0,0,67.512-78.239Zm5.919,5.12a2.744,2.744,0,0,1-1.043-.192,2.236,2.236,0,0,1-.812-.56,2.541,2.541,0,0,1-.527-.913,3.831,3.831,0,0,1-.187-1.245,4.275,4.275,0,0,1,.171-1.261,2.8,2.8,0,0,1,.482-.942,2.074,2.074,0,0,1,.744-.589,2.234,2.234,0,0,1,.957-.2,2.229,2.229,0,0,1,.923.184,1.953,1.953,0,0,1,.7.519,2.341,2.341,0,0,1,.438.8,3.343,3.343,0,0,1,.153,1.04v.586h-3.59a2.362,2.362,0,0,0,.423,1.473,1.455,1.455,0,0,0,1.18.472,4.307,4.307,0,0,0,.49-.026,3.816,3.816,0,0,0,.436-.075,3.173,3.173,0,0,0,.407-.125q.2-.075.4-.169v.84q-.208.1-.407.171a3.28,3.28,0,0,1-.41.119,3.474,3.474,0,0,1-.436.067Q73.7-73.119,73.431-73.119Zm-.233-5.12a1.166,1.166,0,0,0-.936.4,2.007,2.007,0,0,0-.4,1.178h2.552a2.78,2.78,0,0,0-.07-.646,1.423,1.423,0,0,0-.218-.5,1.009,1.009,0,0,0-.376-.322A1.219,1.219,0,0,0,73.2-78.239Zm5.39,4.347q.093,0,.21-.01t.226-.026q.109-.016.2-.036T79.36-74v.716a1.328,1.328,0,0,1-.171.062,2.221,2.221,0,0,1-.228.054q-.125.023-.259.036t-.265.013a2.056,2.056,0,0,1-.6-.083,1.105,1.105,0,0,1-.475-.285,1.383,1.383,0,0,1-.314-.547,2.808,2.808,0,0,1-.114-.869v-3.3h-.8v-.42l.8-.4.4-1.193h.545v1.307h1.432v.711H77.887v3.3a1.416,1.416,0,0,0,.163.757A.59.59,0,0,0,78.587-73.892Zm2.822.669h-.944v-5.7h.944ZM80.393-80.46a.574.574,0,0,1,.158-.451.569.569,0,0,1,.392-.14.676.676,0,0,1,.215.034.46.46,0,0,1,.176.106.515.515,0,0,1,.119.184.726.726,0,0,1,.044.267.575.575,0,0,1-.163.449.564.564,0,0,1-.392.148.557.557,0,0,1-.392-.145A.584.584,0,0,1,80.393-80.46Zm6.381,7.237v-3.668A1.587,1.587,0,0,0,86.5-77.9a1.032,1.032,0,0,0-.853-.337,1.646,1.646,0,0,0-.706.135,1.1,1.1,0,0,0-.459.4,1.8,1.8,0,0,0-.249.648,4.621,4.621,0,0,0-.075.882v2.952h-.944v-5.7h.768l.135.768h.052a1.624,1.624,0,0,1,.309-.386,1.787,1.787,0,0,1,.392-.272,1.845,1.845,0,0,1,.451-.161,2.289,2.289,0,0,1,.488-.052,1.9,1.9,0,0,1,1.429.5,2.216,2.216,0,0,1,.48,1.585v3.72Zm7.086-5.7v.586l-1.022.14a1.561,1.561,0,0,1,.244.464,1.939,1.939,0,0,1,.1.641,2.114,2.114,0,0,1-.122.729,1.548,1.548,0,0,1-.368.578,1.717,1.717,0,0,1-.61.381,2.382,2.382,0,0,1-.846.137l-.228,0a1.029,1.029,0,0,1-.187-.018,1.8,1.8,0,0,0-.174.117.968.968,0,0,0-.156.148.731.731,0,0,0-.114.187.578.578,0,0,0-.044.228.375.375,0,0,0,.062.226.4.4,0,0,0,.169.132.851.851,0,0,0,.252.062,2.873,2.873,0,0,0,.306.016h.913a2.377,2.377,0,0,1,.814.122,1.488,1.488,0,0,1,.542.329,1.215,1.215,0,0,1,.3.49,1.9,1.9,0,0,1,.093.6,1.924,1.924,0,0,1-.169.82,1.569,1.569,0,0,1-.516.615,2.562,2.562,0,0,1-.879.386,5.138,5.138,0,0,1-1.253.135A3.845,3.845,0,0,1,90-70.78a1.959,1.959,0,0,1-.69-.316,1.33,1.33,0,0,1-.412-.5,1.539,1.539,0,0,1-.137-.661,1.38,1.38,0,0,1,.1-.547,1.284,1.284,0,0,1,.272-.407,1.444,1.444,0,0,1,.4-.28A2.263,2.263,0,0,1,90-73.659a.837.837,0,0,1-.358-.311.866.866,0,0,1-.14-.488A.913.913,0,0,1,89.668-75a1.766,1.766,0,0,1,.524-.449,1.459,1.459,0,0,1-.407-.257,1.612,1.612,0,0,1-.311-.374,1.85,1.85,0,0,1-.2-.459,1.888,1.888,0,0,1-.07-.514,2.443,2.443,0,0,1,.13-.825,1.638,1.638,0,0,1,.384-.617,1.674,1.674,0,0,1,.633-.389,2.626,2.626,0,0,1,.882-.135,2.878,2.878,0,0,1,.4.029,1.965,1.965,0,0,1,.345.075Zm-4.207,6.63a.942.942,0,0,0,.067.358.687.687,0,0,0,.22.285,1.159,1.159,0,0,0,.4.189,2.37,2.37,0,0,0,.625.07,2.784,2.784,0,0,0,1.445-.3.953.953,0,0,0,.48-.859,1.029,1.029,0,0,0-.062-.389.486.486,0,0,0-.2-.236.984.984,0,0,0-.376-.117,4.415,4.415,0,0,0-.571-.031h-.913a1.838,1.838,0,0,0-.379.042.973.973,0,0,0-.361.156.876.876,0,0,0-.27.314A1.1,1.1,0,0,0,89.653-72.289Zm.477-4.8a1.235,1.235,0,0,0,.28.887,1.051,1.051,0,0,0,.794.291,1.02,1.02,0,0,0,.786-.288,1.3,1.3,0,0,0,.267-.905,1.369,1.369,0,0,0-.272-.939,1.013,1.013,0,0,0-.791-.3,1,1,0,0,0-.789.311A1.393,1.393,0,0,0,90.13-77.088Zm11.729,1.836a2.167,2.167,0,0,1-.179.9,1.845,1.845,0,0,1-.511.672,2.271,2.271,0,0,1-.809.418,3.746,3.746,0,0,1-1.074.143,6.035,6.035,0,0,1-1.076-.091,2.948,2.948,0,0,1-.838-.267V-74.4q.176.083.4.163t.475.143q.249.062.514.1a3.6,3.6,0,0,0,.524.039,1.979,1.979,0,0,0,1.227-.311,1.067,1.067,0,0,0,.4-.892,1.43,1.43,0,0,0-.075-.488.966.966,0,0,0-.265-.381,2.329,2.329,0,0,0-.506-.337q-.316-.163-.8-.355a4.741,4.741,0,0,1-.8-.4,2.314,2.314,0,0,1-.56-.485,1.8,1.8,0,0,1-.327-.612,2.622,2.622,0,0,1-.106-.778,1.915,1.915,0,0,1,.166-.814,1.689,1.689,0,0,1,.467-.6,2.1,2.1,0,0,1,.718-.376,3.094,3.094,0,0,1,.921-.13,4.83,4.83,0,0,1,1.11.117,4.448,4.448,0,0,1,.877.3l-.348.809a4.938,4.938,0,0,0-.765-.262,3.493,3.493,0,0,0-.884-.112,1.478,1.478,0,0,0-.98.293.981.981,0,0,0-.348.791,1.505,1.505,0,0,0,.078.511,1.013,1.013,0,0,0,.259.389,2.034,2.034,0,0,0,.48.327q.3.153.734.324a7.092,7.092,0,0,1,.827.384,2.483,2.483,0,0,1,.594.446,1.663,1.663,0,0,1,.361.576A2.211,2.211,0,0,1,101.859-75.251Zm.54-3.668h.98l1.115,3.18q.073.208.148.436t.14.457q.065.228.112.441a3.934,3.934,0,0,1,.067.394h.031q.026-.13.083-.353t.127-.475q.07-.252.145-.5t.132-.415l1.032-3.17h.975l-2.251,6.438a6.134,6.134,0,0,1-.314.755,2.337,2.337,0,0,1-.392.568,1.552,1.552,0,0,1-.524.361,1.833,1.833,0,0,1-.716.127,3.31,3.31,0,0,1-.467-.029q-.2-.029-.337-.06v-.752a2.3,2.3,0,0,0,.275.044,3.2,3.2,0,0,0,.348.018,1.385,1.385,0,0,0,.431-.06.936.936,0,0,0,.316-.174,1.053,1.053,0,0,0,.231-.28,2.413,2.413,0,0,0,.174-.379l.3-.83Zm9.452,4.135a1.651,1.651,0,0,1-.15.726,1.4,1.4,0,0,1-.433.521,1.954,1.954,0,0,1-.682.314,3.574,3.574,0,0,1-.9.1,4.491,4.491,0,0,1-.97-.091,2.521,2.521,0,0,1-.711-.267v-.861q.161.083.358.163a4.03,4.03,0,0,0,.415.143,4.134,4.134,0,0,0,.449.1,2.759,2.759,0,0,0,.459.039,2.476,2.476,0,0,0,.573-.057,1.094,1.094,0,0,0,.384-.163.631.631,0,0,0,.215-.259.834.834,0,0,0,.067-.34.776.776,0,0,0-.052-.291.727.727,0,0,0-.189-.257,1.879,1.879,0,0,0-.376-.257q-.239-.13-.612-.291t-.672-.316a2.321,2.321,0,0,1-.506-.348,1.338,1.338,0,0,1-.319-.444,1.471,1.471,0,0,1-.112-.6,1.414,1.414,0,0,1,.143-.646,1.328,1.328,0,0,1,.4-.475,1.85,1.85,0,0,1,.623-.291,3.088,3.088,0,0,1,.809-.1,3.645,3.645,0,0,1,.921.109,4.521,4.521,0,0,1,.791.285l-.327.763a6.412,6.412,0,0,0-.693-.262,2.4,2.4,0,0,0-.724-.112,1.405,1.405,0,0,0-.783.174.565.565,0,0,0-.254.5.777.777,0,0,0,.06.316.7.7,0,0,0,.2.254,2.1,2.1,0,0,0,.389.241q.244.122.607.272t.667.311a2.312,2.312,0,0,1,.5.35,1.341,1.341,0,0,1,.316.444A1.482,1.482,0,0,1,111.851-74.784Zm3.107.892q.093,0,.21-.01t.226-.026q.109-.016.2-.036t.137-.036v.716a1.328,1.328,0,0,1-.171.062,2.222,2.222,0,0,1-.228.054q-.125.023-.259.036t-.265.013a2.056,2.056,0,0,1-.6-.083,1.105,1.105,0,0,1-.475-.285,1.383,1.383,0,0,1-.314-.547,2.808,2.808,0,0,1-.114-.869v-3.3h-.8v-.42l.8-.4.4-1.193h.545v1.307h1.432v.711h-1.432v3.3a1.416,1.416,0,0,0,.163.757A.59.59,0,0,0,114.958-73.892Zm4.129.773a2.744,2.744,0,0,1-1.043-.192,2.236,2.236,0,0,1-.812-.56,2.541,2.541,0,0,1-.527-.913,3.831,3.831,0,0,1-.187-1.245,4.275,4.275,0,0,1,.171-1.261,2.8,2.8,0,0,1,.482-.942,2.074,2.074,0,0,1,.744-.589,2.234,2.234,0,0,1,.957-.2,2.229,2.229,0,0,1,.923.184,1.953,1.953,0,0,1,.7.519,2.341,2.341,0,0,1,.438.8,3.343,3.343,0,0,1,.153,1.04v.586H117.5a2.362,2.362,0,0,0,.423,1.473,1.455,1.455,0,0,0,1.18.472,4.306,4.306,0,0,0,.49-.026,3.816,3.816,0,0,0,.436-.075,3.174,3.174,0,0,0,.407-.125q.2-.075.4-.169v.84q-.208.1-.407.171a3.28,3.28,0,0,1-.41.119,3.474,3.474,0,0,1-.436.067Q119.352-73.119,119.088-73.119Zm-.233-5.12a1.166,1.166,0,0,0-.936.4,2.007,2.007,0,0,0-.4,1.178h2.552A2.78,2.78,0,0,0,120-77.3a1.423,1.423,0,0,0-.218-.5,1.009,1.009,0,0,0-.376-.322A1.218,1.218,0,0,0,118.854-78.239Zm10.489,5.016v-3.668a1.645,1.645,0,0,0-.259-1.012.95.95,0,0,0-.8-.337,1.531,1.531,0,0,0-.643.122,1.078,1.078,0,0,0-.433.358,1.592,1.592,0,0,0-.246.586,3.744,3.744,0,0,0-.078.807v3.144h-.949v-3.668a1.658,1.658,0,0,0-.257-1.012.943.943,0,0,0-.8-.337,1.488,1.488,0,0,0-.669.135,1.058,1.058,0,0,0-.433.4,1.862,1.862,0,0,0-.233.648,4.956,4.956,0,0,0-.07.882v2.952h-.944v-5.7h.768l.135.768h.052a1.623,1.623,0,0,1,.3-.386,1.7,1.7,0,0,1,.376-.272,1.733,1.733,0,0,1,.436-.161,2.135,2.135,0,0,1,.469-.052,2.117,2.117,0,0,1,1.035.228,1.372,1.372,0,0,1,.61.716h.041a1.68,1.68,0,0,1,.324-.42,1.861,1.861,0,0,1,.415-.293,2,2,0,0,1,.475-.174,2.269,2.269,0,0,1,.508-.057,1.774,1.774,0,0,1,1.367.5,2.283,2.283,0,0,1,.459,1.585v3.72Z" transform="translate(-3217.16 -6350.911)" fill="#fff"/>
    <path id="Path_9929" data-name="Path 9929" d="M12.286-76.535a2.826,2.826,0,0,1-.538-.05,1.691,1.691,0,0,1-.482-.17,1.432,1.432,0,0,1-.4-.329,1.769,1.769,0,0,1-.3-.527q-.217.05-.432.078a3.309,3.309,0,0,1-.427.028,2.781,2.781,0,0,1-.814-.117,1.977,1.977,0,0,1-.675-.351,1.678,1.678,0,0,1-.46-.588,1.907,1.907,0,0,1-.17-.834,2.147,2.147,0,0,1,.231-1,2.613,2.613,0,0,1,.619-.781,3.4,3.4,0,0,1,.9-.552,4.937,4.937,0,0,1,1.073-.318v-.686h1.188v3.68a3.875,3.875,0,0,0,.022.446.6.6,0,0,0,.12.312.585.585,0,0,0,.29.184,1.8,1.8,0,0,0,.527.061v1.517ZM10.4-80.605q-.34.067-.641.156a2.579,2.579,0,0,0-.53.217,1.179,1.179,0,0,0-.362.3.646.646,0,0,0-.134.407.493.493,0,0,0,.081.3.556.556,0,0,0,.215.176.953.953,0,0,0,.307.084,3.18,3.18,0,0,0,.357.02,3.18,3.18,0,0,0,.357-.02,2.7,2.7,0,0,0,.351-.064Zm-.786-3.172H8.305v-1.176h1.31Zm1.907,0h-1.31v-1.176h1.31Zm1.762,7.243h-.736a.312.312,0,0,1-.293-.2,1.3,1.3,0,0,1-.1-.555,1.3,1.3,0,0,1,.1-.555.312.312,0,0,1,.293-.2h.792a3.591,3.591,0,0,0,.407-.02.6.6,0,0,0,.273-.092.406.406,0,0,0,.153-.22,1.4,1.4,0,0,0,.047-.41v-2.648h1.188v2.264q0,.29.017.5a.733.733,0,0,0,.109.351.538.538,0,0,0,.284.206,1.726,1.726,0,0,0,.544.067v1.517h-.256a2.04,2.04,0,0,1-.831-.153.992.992,0,0,1-.507-.488h-.033a1.376,1.376,0,0,1-.323.318,1.73,1.73,0,0,1-.371.2,1.831,1.831,0,0,1-.388.1A2.608,2.608,0,0,1,13.284-76.535Zm2.063-7.181q-.128-.028-.243-.045a1.323,1.323,0,0,0-.181-.017.63.63,0,0,0-.343.086.325.325,0,0,0-.137.3.358.358,0,0,0,.156.318.791.791,0,0,0,.446.106H15.6v.641H13.5v-.608h.446l.006-.022a1.32,1.32,0,0,1-.17-.282.721.721,0,0,1-.059-.287.794.794,0,0,1,.084-.365.872.872,0,0,1,.237-.287,1.112,1.112,0,0,1,.368-.19,1.6,1.6,0,0,1,.477-.067,2.542,2.542,0,0,1,.457.05ZM17.1-76.535h-.736a.312.312,0,0,1-.293-.2,1.3,1.3,0,0,1-.1-.555,1.3,1.3,0,0,1,.1-.555.312.312,0,0,1,.293-.2h.792a3.591,3.591,0,0,0,.407-.02.6.6,0,0,0,.273-.092.406.406,0,0,0,.153-.22,1.4,1.4,0,0,0,.047-.41v-2.648h1.188v2.264q0,.29.017.5a.733.733,0,0,0,.109.351.538.538,0,0,0,.284.206,1.726,1.726,0,0,0,.544.067v1.517h-.256a2.04,2.04,0,0,1-.831-.153.992.992,0,0,1-.507-.488h-.033a1.376,1.376,0,0,1-.323.318,1.73,1.73,0,0,1-.371.2,1.831,1.831,0,0,1-.388.1A2.608,2.608,0,0,1,17.1-76.535Zm.808,1.929H16.6v-1.176h1.31Zm1.907,0H18.5v-1.176h1.31Zm1.176-3.446a8.87,8.87,0,0,1,.323-1.313,7.232,7.232,0,0,1,.421-1.012,4.306,4.306,0,0,1,.471-.736,3.2,3.2,0,0,1,.485-.491,1.785,1.785,0,0,1,.457-.273,1.092,1.092,0,0,1,.385-.084.836.836,0,0,1,.544.217,2.008,2.008,0,0,1,.454.566,3.337,3.337,0,0,1,.309.781,3.357,3.357,0,0,1,.114.861,2.55,2.55,0,0,1-.131.822,1.394,1.394,0,0,1-.432.638l.006.022H25.9v1.517H24.508l-.011.022a1.73,1.73,0,0,1,.337.558,1.72,1.72,0,0,1,.1.58,1.64,1.64,0,0,1-.123.624,1.681,1.681,0,0,1-.34.53,1.674,1.674,0,0,1-.521.368,1.565,1.565,0,0,1-.661.139,2.114,2.114,0,0,1-.449-.053,1.954,1.954,0,0,1-.488-.181,2.454,2.454,0,0,1-.485-.34,2.366,2.366,0,0,1-.435-.524,3.276,3.276,0,0,1-.332-.739,4.587,4.587,0,0,1-.187-.984h-.742a.312.312,0,0,1-.293-.2,1.3,1.3,0,0,1-.1-.555,1.3,1.3,0,0,1,.1-.555.312.312,0,0,1,.293-.2Zm2.325-2.381a.438.438,0,0,0-.259.153,2.012,2.012,0,0,0-.329.454,4.557,4.557,0,0,0-.323.744,5.869,5.869,0,0,0-.243,1.029H22.7a.837.837,0,0,0,.468-.131,1.161,1.161,0,0,0,.335-.332,1.543,1.543,0,0,0,.2-.435,1.624,1.624,0,0,0,.067-.446,1.632,1.632,0,0,0-.042-.362,1.965,1.965,0,0,0-.106-.335.95.95,0,0,0-.145-.245A.223.223,0,0,0,23.315-80.432Zm-.708,3.9h-.524a2.3,2.3,0,0,0,.17.56,1.656,1.656,0,0,0,.27.421,1.093,1.093,0,0,0,.346.262.931.931,0,0,0,.4.089.527.527,0,0,0,.382-.123.392.392,0,0,0,.125-.29.644.644,0,0,0-.086-.3,1.065,1.065,0,0,0-.243-.3,1.388,1.388,0,0,0-.371-.229A1.184,1.184,0,0,0,22.607-76.535Zm3.97,0H25.9a.312.312,0,0,1-.293-.2,1.3,1.3,0,0,1-.1-.555,1.3,1.3,0,0,1,.1-.555.312.312,0,0,1,.293-.2h.736q.223,0,.4-.017a.692.692,0,0,0,.3-.089.448.448,0,0,0,.181-.22,1.118,1.118,0,0,0,.061-.415v-6.334h1.188v6.373a2.865,2.865,0,0,1-.184,1.112,1.71,1.71,0,0,1-.488.677,1.717,1.717,0,0,1-.7.337A3.548,3.548,0,0,1,26.576-76.535Zm3.853-.139v-8.453h1.188v8.453Zm11.736-.156a3.575,3.575,0,0,1-.861,2.308,3,3,0,0,1-2.244.769,3.736,3.736,0,0,1-1.3-.2,2.122,2.122,0,0,1-.87-.58,2.325,2.325,0,0,1-.491-.945,4.964,4.964,0,0,1-.153-1.3q0-.2.011-.4T36.3-77.6q.025-.223.064-.479t.1-.563h1.165q-.056.346-.092.608t-.056.466q-.02.2-.028.362t-.008.3a3.154,3.154,0,0,0,.072.719,1.114,1.114,0,0,0,.256.507,1.1,1.1,0,0,0,.5.3,2.808,2.808,0,0,0,.808.1,2.915,2.915,0,0,0,.942-.131,1.316,1.316,0,0,0,.6-.407,1.658,1.658,0,0,0,.321-.7,4.679,4.679,0,0,0,.095-1.009q0-.24-.014-.488t-.047-.552q-.033-.3-.081-.694t-.114-.909h1.193q.061.535.112.928t.084.711a.6.6,0,0,0,.075.251.376.376,0,0,0,.167.145.859.859,0,0,0,.27.067,3.739,3.739,0,0,0,.379.017,2.256,2.256,0,0,0,.3-.02.613.613,0,0,0,.259-.095.528.528,0,0,0,.184-.223.964.964,0,0,0,.07-.4v-1.583H45.07v1.2q0,.29.017.5a.825.825,0,0,0,.1.351.481.481,0,0,0,.256.206,1.437,1.437,0,0,0,.493.067,2.858,2.858,0,0,0,.321-.017.552.552,0,0,0,.256-.092.491.491,0,0,0,.17-.223,1.1,1.1,0,0,0,.061-.41v-2.648h1.188v2.23q0,.3.017.513a.761.761,0,0,0,.109.36.56.56,0,0,0,.284.215,1.6,1.6,0,0,0,.544.072v1.517h-.256a2.031,2.031,0,0,1-.769-.128,1.1,1.1,0,0,1-.513-.446,1.451,1.451,0,0,1-.315.284,1.611,1.611,0,0,1-.354.176,1.88,1.88,0,0,1-.376.089,2.909,2.909,0,0,1-.376.025,3.352,3.352,0,0,1-.432-.028,1.721,1.721,0,0,1-.407-.1,1.284,1.284,0,0,1-.351-.206,1.071,1.071,0,0,1-.265-.332h-.033a1.229,1.229,0,0,1-.243.284,1.521,1.521,0,0,1-.315.209,1.668,1.668,0,0,1-.36.131,1.592,1.592,0,0,1-.371.045,2.04,2.04,0,0,1-.507-.061.984.984,0,0,1-.435-.245Zm7.454.3h-.736a.312.312,0,0,1-.293-.2,1.3,1.3,0,0,1-.1-.555,1.3,1.3,0,0,1,.1-.555.312.312,0,0,1,.293-.2h.792a3.591,3.591,0,0,0,.407-.02.6.6,0,0,0,.273-.092.406.406,0,0,0,.153-.22,1.4,1.4,0,0,0,.047-.41v-2.648h1.188v2.264q0,.29.017.5a.733.733,0,0,0,.109.351.538.538,0,0,0,.284.206,1.726,1.726,0,0,0,.544.067v1.517h-.256a2.04,2.04,0,0,1-.831-.153.992.992,0,0,1-.507-.488H51.07a1.376,1.376,0,0,1-.323.318,1.73,1.73,0,0,1-.371.2,1.831,1.831,0,0,1-.388.1A2.608,2.608,0,0,1,49.62-76.535Zm.808,1.929h-1.31v-1.176h1.31Zm1.907,0h-1.31v-1.176h1.31Zm1.1-1.929H52.7a.312.312,0,0,1-.293-.2,1.3,1.3,0,0,1-.1-.555,1.3,1.3,0,0,1,.1-.555.312.312,0,0,1,.293-.2h.792q.223,0,.39-.017a.6.6,0,0,0,.276-.089.427.427,0,0,0,.162-.22,1.281,1.281,0,0,0,.053-.415v-2.648h1.188v2.687a2.987,2.987,0,0,1-.176,1.112,1.7,1.7,0,0,1-.468.677,1.629,1.629,0,0,1-.677.337A3.441,3.441,0,0,1,53.434-76.535Zm2.158-7.4q-.128-.028-.243-.045A1.323,1.323,0,0,0,55.168-84a.63.63,0,0,0-.343.086.325.325,0,0,0-.137.3.358.358,0,0,0,.156.318.791.791,0,0,0,.446.106h.558v.641h-2.1v-.608h.446l.006-.022a1.32,1.32,0,0,1-.17-.282.721.721,0,0,1-.059-.287.794.794,0,0,1,.084-.365.872.872,0,0,1,.237-.287,1.112,1.112,0,0,1,.368-.19,1.6,1.6,0,0,1,.477-.067,2.542,2.542,0,0,1,.457.05Zm.92,8.441q.385.112.644.159a2.666,2.666,0,0,0,.477.047,1.5,1.5,0,0,0,.736-.159,1.186,1.186,0,0,0,.446-.427,1.737,1.737,0,0,0,.22-.619,4.508,4.508,0,0,0,.059-.742,5.543,5.543,0,0,0-.05-.744,7.137,7.137,0,0,0-.151-.772q-.1-.4-.248-.847t-.337-.976h1.316q.173.429.3.87t.22.881q.089.44.134.864a7.783,7.783,0,0,1,.045.814,4.832,4.832,0,0,1-.215,1.528,3.04,3.04,0,0,1-.58,1.057,2.271,2.271,0,0,1-.845.613,2.633,2.633,0,0,1-1.015.2,2.794,2.794,0,0,1-.538-.053,4.205,4.205,0,0,1-.622-.181Zm15.126-5.944h1.188v2.609a2.5,2.5,0,0,1-.153.926,1.748,1.748,0,0,1-.432.644,2.088,2.088,0,0,1-.672.413,4.412,4.412,0,0,1-.878.234,8.394,8.394,0,0,1-1.043.1q-.558.022-1.171.022-.647,0-1.215-.011a10.359,10.359,0,0,1-1.048-.07,5.1,5.1,0,0,1-.864-.176,1.96,1.96,0,0,1-.658-.335,1.521,1.521,0,0,1-.337-.362,2.034,2.034,0,0,1-.22-.44,2.5,2.5,0,0,1-.12-.485,3.5,3.5,0,0,1-.036-.5,4.927,4.927,0,0,1,.059-.764q.059-.374.153-.742h1.193q-.045.206-.081.371t-.059.307q-.022.142-.033.276t-.011.273a1.569,1.569,0,0,0,.059.44.714.714,0,0,0,.27.362,1.213,1.213,0,0,0,.421.2,3.984,3.984,0,0,0,.638.109q.385.039.917.047t1.252.008q.87,0,1.43-.02a4.084,4.084,0,0,0,.881-.106.766.766,0,0,0,.446-.265.852.852,0,0,0,.125-.5Zm-3.4-1.121h-1.31v-1.176h1.31Zm1.907,0h-1.31v-1.176h1.31ZM75.6-84.3l2.5,7.477H76.823L74.3-84.3Zm1.093,7.811q-.541,0-1.093-.039t-1.188-.134l-.284-1.455.8.089q.362.039.683.064t.627.036q.307.011.641.011a6.185,6.185,0,0,0,.716-.033,1.054,1.054,0,0,0,.435-.134.508.508,0,0,0,.217-.276,1.489,1.489,0,0,0,.059-.46v-6.306H79.5v5.949a4.587,4.587,0,0,0,.025.521.744.744,0,0,0,.12.348.538.538,0,0,0,.287.2,1.775,1.775,0,0,0,.521.061v1.517h-.167a1.716,1.716,0,0,1-.747-.145,1.174,1.174,0,0,1-.5-.468H79a1.581,1.581,0,0,1-.446.34,2.509,2.509,0,0,1-.546.2,3.667,3.667,0,0,1-.63.095Q77.046-76.49,76.695-76.49Zm4.494-.045h-.736a.312.312,0,0,1-.293-.2,1.3,1.3,0,0,1-.1-.555,1.3,1.3,0,0,1,.1-.555.312.312,0,0,1,.293-.2h.792q.223,0,.39-.017a.6.6,0,0,0,.276-.089.427.427,0,0,0,.162-.22,1.281,1.281,0,0,0,.053-.415v-2.648h1.188v2.687a2.988,2.988,0,0,1-.176,1.112,1.7,1.7,0,0,1-.468.677,1.629,1.629,0,0,1-.677.337A3.441,3.441,0,0,1,81.189-76.535Zm2.08,1.873h-1.31v-1.176h1.31Zm3.607-1.873a2.073,2.073,0,0,1-.934-.184,1.506,1.506,0,0,1-.58-.5,1.941,1.941,0,0,1-.3-.736,4.742,4.742,0,0,1-.081-.895v-6.278h1.188v5.949a4.188,4.188,0,0,0,.028.527.766.766,0,0,0,.123.348.524.524,0,0,0,.284.192,1.825,1.825,0,0,0,.519.059v1.517ZM88.7-78.052a2.4,2.4,0,0,1-.652-.733,1.835,1.835,0,0,1-.234-.917,2.52,2.52,0,0,1,.072-.591,2.91,2.91,0,0,1,.206-.58,3.028,3.028,0,0,1,.318-.521,2.668,2.668,0,0,1,.4-.427,1.757,1.757,0,0,1,.468-.287,1.338,1.338,0,0,1,.513-.1,1.275,1.275,0,0,1,.583.139,1.9,1.9,0,0,1,.51.382,2.927,2.927,0,0,1,.421.563,4.128,4.128,0,0,1,.318.686,4.657,4.657,0,0,1,.2.755,4.34,4.34,0,0,1,.07.764,2.378,2.378,0,0,1-.139.836q.117.011.229.017l.237.011q.125.006.276.006h.351v1.517h-.2q-.245,0-.521-.02t-.555-.059q-.279-.039-.549-.1a4.028,4.028,0,0,1-.5-.153,3.748,3.748,0,0,1-.616.184,6.407,6.407,0,0,1-.638.1q-.318.033-.619.042t-.552.008h-.97a.312.312,0,0,1-.293-.2,1.3,1.3,0,0,1-.1-.555,1.3,1.3,0,0,1,.1-.555.312.312,0,0,1,.293-.2h.558q.106,0,.256.008l.3.017.27.014q.123.006.173.006Zm1.026-2.609a.459.459,0,0,0-.279.1,1.031,1.031,0,0,0-.234.248,1.374,1.374,0,0,0-.159.312.9.9,0,0,0-.059.3.673.673,0,0,0,.053.237,1.014,1.014,0,0,0,.212.307,2.816,2.816,0,0,0,.454.374,6.017,6.017,0,0,0,.781.438.379.379,0,0,0,.1-.131,1.035,1.035,0,0,0,.064-.17,1,1,0,0,0,.033-.178q.008-.089.008-.156a1.91,1.91,0,0,0-.081-.5,2.842,2.842,0,0,0-.217-.552,1.88,1.88,0,0,0-.312-.443A.511.511,0,0,0,89.725-80.661Zm-.335-2.7H88.08v-1.176h1.31Zm1.907,0h-1.31v-1.176H91.3Zm5.208,6.83a2.668,2.668,0,0,1-.566-.059,2.711,2.711,0,0,1-.513-.164A3.162,3.162,0,0,1,94.969-77a2.56,2.56,0,0,1-.387-.307,1.766,1.766,0,0,1-.758.6,2.513,2.513,0,0,1-.937.173h-.039a.312.312,0,0,1-.293-.2,1.3,1.3,0,0,1-.1-.555,1.3,1.3,0,0,1,.1-.555.312.312,0,0,1,.293-.2h.078a1.2,1.2,0,0,0,.58-.125,1.267,1.267,0,0,0,.385-.321,1.884,1.884,0,0,0,.259-.435q.1-.24.209-.468a5.848,5.848,0,0,1,.332-.624,2.458,2.458,0,0,1,.421-.519,1.859,1.859,0,0,1,.552-.354,1.862,1.862,0,0,1,.725-.131,1.958,1.958,0,0,1,.951.223,2.147,2.147,0,0,1,.683.577,2.513,2.513,0,0,1,.41.789,2.854,2.854,0,0,1,.137.859,2.253,2.253,0,0,1-.145.817,1.884,1.884,0,0,1-.413.65,1.873,1.873,0,0,1-.65.427A2.279,2.279,0,0,1,96.5-76.535Zm-.156-3a.976.976,0,0,0-.407.081,1.082,1.082,0,0,0-.321.223,1.587,1.587,0,0,0-.254.337,3.059,3.059,0,0,0-.2.429,1.636,1.636,0,0,0,.254.178,1.609,1.609,0,0,0,.3.131,1.938,1.938,0,0,0,.362.078,3.615,3.615,0,0,0,.446.025q.156,0,.309-.014a.984.984,0,0,0,.273-.061.485.485,0,0,0,.192-.131.329.329,0,0,0,.072-.223,1.115,1.115,0,0,0-.05-.284,1.141,1.141,0,0,0-.17-.348,1.107,1.107,0,0,0-.318-.3A.894.894,0,0,0,96.349-79.535Zm10.025-1.639a1.392,1.392,0,0,1,.594.128,1.909,1.909,0,0,1,.5.343,2.626,2.626,0,0,1,.41.5,3.52,3.52,0,0,1,.307.594,3.594,3.594,0,0,1,.19.63,3.075,3.075,0,0,1,.064.608,2.118,2.118,0,0,1-.128.753,1.681,1.681,0,0,1-.362.583,1.633,1.633,0,0,1-.558.376,1.849,1.849,0,0,1-.714.134,2.767,2.767,0,0,1-.549-.056q-.276-.056-.544-.125t-.519-.125a2.166,2.166,0,0,0-.468-.056.835.835,0,0,0-.346.061.482.482,0,0,0-.206.17.656.656,0,0,0-.1.259,2.043,2.043,0,0,0-.025.335q0,.162.02.393t.064.521q.045.29.123.63t.2.714h-1.249q-.167-.714-.259-1.268a6.12,6.12,0,0,1-.092-.99,3.028,3.028,0,0,1,.1-.808,2.161,2.161,0,0,1,.284-.636,1.664,1.664,0,0,1,.446-.452,1.772,1.772,0,0,1,.58-.256,6.844,6.844,0,0,1,.318-1.087,4.8,4.8,0,0,1,.39-.789,2.95,2.95,0,0,1,.424-.538,2.256,2.256,0,0,1,.421-.332,1.474,1.474,0,0,1,.379-.164A1.261,1.261,0,0,1,106.373-81.174Zm.3,3.189a1.356,1.356,0,0,0,.212-.017.6.6,0,0,0,.19-.061.341.341,0,0,0,.134-.128.418.418,0,0,0,.05-.217,1.189,1.189,0,0,0-.07-.348,1.92,1.92,0,0,0-.2-.421,1.42,1.42,0,0,0-.309-.354.624.624,0,0,0-.4-.148.611.611,0,0,0-.36.112,1.191,1.191,0,0,0-.293.307,2.365,2.365,0,0,0-.24.46q-.106.265-.2.571.184.033.368.075t.368.078q.184.036.368.064A2.528,2.528,0,0,0,106.675-77.985Zm5.1,1.45a2.073,2.073,0,0,1-.934-.184,1.506,1.506,0,0,1-.58-.5,1.94,1.94,0,0,1-.3-.736,4.741,4.741,0,0,1-.081-.895v-6.278h1.188v5.949a4.189,4.189,0,0,0,.028.527.766.766,0,0,0,.123.348.523.523,0,0,0,.284.192,1.825,1.825,0,0,0,.519.059v1.517Zm.251,0a.312.312,0,0,1-.293-.2,1.3,1.3,0,0,1-.1-.555,1.3,1.3,0,0,1,.1-.555.312.312,0,0,1,.293-.2h1.907v1.517Zm1.907,0a.313.313,0,0,1-.293-.2,1.3,1.3,0,0,1-.1-.555,1.3,1.3,0,0,1,.1-.555.313.313,0,0,1,.293-.2h1.907v1.517Zm7.783-5.436a2.843,2.843,0,0,1,1.157.22,2.318,2.318,0,0,1,.836.613,2.724,2.724,0,0,1,.516.937,4.163,4.163,0,0,1,.2,1.2,3.161,3.161,0,0,0,.033.407.646.646,0,0,0,.123.3.567.567,0,0,0,.282.184,1.717,1.717,0,0,0,.516.061v1.517h-.167a2.111,2.111,0,0,1-.82-.145,1.007,1.007,0,0,1-.524-.513h-.033a1.626,1.626,0,0,1-.563.4,3.151,3.151,0,0,1-.716.209,5.944,5.944,0,0,1-.82.081q-.432.014-.873.014t-1.051-.006l-1.252-.014-1.3-.017q-.652-.008-1.21-.008h-.2a.312.312,0,0,1-.293-.2,1.3,1.3,0,0,1-.1-.555,1.3,1.3,0,0,1,.1-.555.312.312,0,0,1,.293-.2H117.5v-7.075h1.188v4.867l.033.011a5.19,5.19,0,0,1,.585-.677,4.013,4.013,0,0,1,.7-.546,3.547,3.547,0,0,1,.806-.365A3.018,3.018,0,0,1,121.717-81.971Zm-.095,1.528a2.615,2.615,0,0,0-1.043.2,3.135,3.135,0,0,0-.853.541,3.992,3.992,0,0,0-.669.772,5.609,5.609,0,0,0-.491.9q.095.006.27.008l.4.006.471.006.485,0H121q.714,0,1.151-.022a2.543,2.543,0,0,0,.677-.106.523.523,0,0,0,.321-.251,1.083,1.083,0,0,0,.081-.463,2,2,0,0,0-.112-.7,1.317,1.317,0,0,0-.321-.5,1.339,1.339,0,0,0-.5-.3A2.074,2.074,0,0,0,121.623-80.444Zm.435-2.342h-1.31v-1.176h1.31Zm4.053,6.25h-.736a.312.312,0,0,1-.293-.2,1.3,1.3,0,0,1-.1-.555,1.3,1.3,0,0,1,.1-.555.312.312,0,0,1,.293-.2h.792q.223,0,.39-.017a.6.6,0,0,0,.276-.089.427.427,0,0,0,.162-.22,1.28,1.28,0,0,0,.053-.415v-2.648h1.188v2.687a2.988,2.988,0,0,1-.176,1.112,1.7,1.7,0,0,1-.468.677,1.629,1.629,0,0,1-.677.337A3.441,3.441,0,0,1,126.111-76.535Zm2.191-6.027h-1.31v-1.176h1.31Z" transform="translate(-3218.105 -6362.452)" fill="#fff"/>
  </g>
</svg>
