<svg xmlns="http://www.w3.org/2000/svg" width="100.204" height="40.691" viewBox="0 0 100.204 40.691">
  <g id="logo_text" data-name="logo text" transform="translate(-1279 -740.689)">
    <path id="Path_9938" data-name="Path 9938" d="M0-13.337q.776.228,1.318.331a5.446,5.446,0,0,0,1.01.1,3.222,3.222,0,0,0,1.547-.331,2.546,2.546,0,0,0,.964-.9,3.705,3.705,0,0,0,.491-1.313,8.832,8.832,0,0,0,.137-1.592A11.288,11.288,0,0,0,5.359-18.6a14.5,14.5,0,0,0-.314-1.581q-.205-.8-.5-1.678T3.9-23.723H6.392q.331.845.594,1.723t.445,1.758q.183.879.28,1.729a14.365,14.365,0,0,1,.1,1.626,9.533,9.533,0,0,1-.434,3.042A6.168,6.168,0,0,1,6.2-11.722a4.649,4.649,0,0,1-1.723,1.25,5.367,5.367,0,0,1-2.083.411,5.953,5.953,0,0,1-1.124-.108A8.111,8.111,0,0,1,0-10.54Zm11.379-2.671v-17.3h2.271v17.3Zm4.234,2.237a13.31,13.31,0,0,0,2.14.673,8.748,8.748,0,0,0,1.786.194,4.226,4.226,0,0,0,1.649-.28,2.9,2.9,0,0,0,1.056-.73,2.8,2.8,0,0,0,.582-1.039,5.872,5.872,0,0,0,.24-1.2,4.683,4.683,0,0,1-1.712.32,5.053,5.053,0,0,1-1.455-.217,3.807,3.807,0,0,1-1.307-.685,3.471,3.471,0,0,1-.942-1.2,4.012,4.012,0,0,1-.36-1.775,5.29,5.29,0,0,1,.137-1.181,6.188,6.188,0,0,1,.388-1.158,6.2,6.2,0,0,1,.6-1.05,4.51,4.51,0,0,1,.776-.85,3.733,3.733,0,0,1,.913-.571,2.532,2.532,0,0,1,1.022-.211,2.672,2.672,0,0,1,1.581.5,5.319,5.319,0,0,1,1.353,1.524,7.642,7.642,0,0,1,.993,2.482,14,14,0,0,1,.32,3.053,10.922,10.922,0,0,1-.337,2.756,6.571,6.571,0,0,1-1.05,2.266,5.115,5.115,0,0,1-1.815,1.535,5.7,5.7,0,0,1-2.631.565,8.677,8.677,0,0,1-.947-.051,8.493,8.493,0,0,1-.947-.16,9.627,9.627,0,0,1-.982-.28q-.5-.171-1.05-.4Zm7.407-4.988a6.007,6.007,0,0,0-.251-.959,6.412,6.412,0,0,0-.445-1.016,3.644,3.644,0,0,0-.588-.81.974.974,0,0,0-.7-.331.993.993,0,0,0-.6.205,2.059,2.059,0,0,0-.485.508,2.708,2.708,0,0,0-.325.656,2.014,2.014,0,0,0-.12.639,1.175,1.175,0,0,0,.165.639,1.3,1.3,0,0,0,.445.428,2.166,2.166,0,0,0,.645.245,3.57,3.57,0,0,0,.765.08,4.89,4.89,0,0,0,.77-.063A2.6,2.6,0,0,0,23.021-18.758Zm14.062,3H36.8a2.442,2.442,0,0,1-1.039-.177,1.791,1.791,0,0,1-.628-.508.045.045,0,0,0-.029.006.045.045,0,0,1-.029.006,9.29,9.29,0,0,1-.514,2.842,5.941,5.941,0,0,1-1.164,1.98,4.566,4.566,0,0,1-1.666,1.164,5.316,5.316,0,0,1-2.009.382,5.953,5.953,0,0,1-1.124-.108,8.111,8.111,0,0,1-1.273-.371v-2.8q.776.228,1.318.331a5.446,5.446,0,0,0,1.01.1,3.154,3.154,0,0,0,1.535-.331,2.524,2.524,0,0,0,.947-.9,3.7,3.7,0,0,0,.479-1.313,9.206,9.206,0,0,0,.131-1.592,11.9,11.9,0,0,0-.1-1.564,14.412,14.412,0,0,0-.3-1.581q-.2-.8-.479-1.678t-.633-1.866h2.488a17.735,17.735,0,0,1,.656,1.963q.268.993.451,2a1.505,1.505,0,0,0,.171.5,1.094,1.094,0,0,0,.377.382,1.993,1.993,0,0,0,.662.245,5.3,5.3,0,0,0,1.05.086Zm-3.8-10.74H30.737v-2.317h2.545Zm7.7-6.814v13.16a5.578,5.578,0,0,1-.377,2.226,3.365,3.365,0,0,1-.993,1.335,3.508,3.508,0,0,1-1.41.656,7.449,7.449,0,0,1-1.626.177h-1.45a.641.641,0,0,1-.6-.382,2.216,2.216,0,0,1-.2-1.022,2.187,2.187,0,0,1,.2-1.01.641.641,0,0,1,.6-.382H36.7a7.178,7.178,0,0,0,.856-.046,1.438,1.438,0,0,0,.633-.217,1.076,1.076,0,0,0,.394-.508,2.461,2.461,0,0,0,.137-.907v-13.08Zm3.572,17.3v-17.3H46.83v17.3Zm18.6-8.891a2.826,2.826,0,0,1,1.181.251,3.779,3.779,0,0,1,1.01.673,4.959,4.959,0,0,1,.81.976,7.109,7.109,0,0,1,.6,1.158,7.186,7.186,0,0,1,.377,1.233,5.809,5.809,0,0,1,.131,1.187,4.27,4.27,0,0,1-.245,1.472,3.392,3.392,0,0,1-.7,1.164,3.171,3.171,0,0,1-1.107.765,3.7,3.7,0,0,1-1.45.274,5.751,5.751,0,0,1-1.13-.114q-.571-.114-1.119-.251t-1.061-.251a4.39,4.39,0,0,0-.947-.114,1.723,1.723,0,0,0-.719.131,1.061,1.061,0,0,0-.445.365,1.481,1.481,0,0,0-.223.571,4.093,4.093,0,0,0-.063.748q0,.354.046.845t.137,1.079q.091.588.245,1.244t.371,1.353h-2.4q-.331-1.4-.508-2.517a12.768,12.768,0,0,1-.177-1.98,5.978,5.978,0,0,1,.205-1.621,4.286,4.286,0,0,1,.582-1.278,3.353,3.353,0,0,1,.907-.9,3.514,3.514,0,0,1,1.193-.5,14.711,14.711,0,0,1,.639-2.22,9.416,9.416,0,0,1,.782-1.6,5.561,5.561,0,0,1,.856-1.079,4.588,4.588,0,0,1,.845-.651,2.884,2.884,0,0,1,.765-.32A2.71,2.71,0,0,1,63.155-24.9Zm.536,6.449a2.98,2.98,0,0,0,.491-.04,1.142,1.142,0,0,0,.422-.154.839.839,0,0,0,.291-.308,1.024,1.024,0,0,0,.108-.5,2.621,2.621,0,0,0-.148-.77,3.826,3.826,0,0,0-.417-.885,2.949,2.949,0,0,0-.645-.725,1.3,1.3,0,0,0-.833-.3,1.33,1.33,0,0,0-.753.228,2.3,2.3,0,0,0-.622.645,5.362,5.362,0,0,0-.514,1,11.987,11.987,0,0,0-.428,1.307q.753.137,1.507.32A6.517,6.517,0,0,0,63.691-18.45Zm9.12-14.861v12.293q0,.673.046,1.141a1.6,1.6,0,0,0,.245.759,1.15,1.15,0,0,0,.588.428,3.34,3.34,0,0,0,1.073.137v2.8h-.445a4.225,4.225,0,0,1-1.9-.371,2.932,2.932,0,0,1-1.153-1,3.889,3.889,0,0,1-.571-1.461,9.656,9.656,0,0,1-.154-1.758V-33.311Zm7.8,0v10.318l.057.011a10.98,10.98,0,0,1,1.2-1.4,8.323,8.323,0,0,1,1.45-1.141,7.5,7.5,0,0,1,1.672-.77,6.1,6.1,0,0,1,1.872-.285,5.843,5.843,0,0,1,2.363.445,4.652,4.652,0,0,1,1.695,1.238,5.376,5.376,0,0,1,1.027,1.878,8.438,8.438,0,0,1,.382,2.363,6.779,6.779,0,0,0,.074.907,1.52,1.52,0,0,0,.257.662,1.143,1.143,0,0,0,.576.4,3.325,3.325,0,0,0,1.044.131v2.8h-.274a4.152,4.152,0,0,1-1.695-.308,2.125,2.125,0,0,1-1.056-1.061h-.068a3.176,3.176,0,0,1-1.13.827,6.434,6.434,0,0,1-1.455.434,11.589,11.589,0,0,1-1.678.171q-.885.029-1.809.029-1.016,0-2.22-.011T80.407-15.7l-2.585-.034q-1.3-.017-2.511-.017h-.548a.641.641,0,0,1-.6-.382,2.216,2.216,0,0,1-.2-1.022,2.187,2.187,0,0,1,.2-1.01.641.641,0,0,1,.6-.382h3.4q.034-.1.074-.194t.1-.205V-33.311Zm-.32,14.8q.342.023.976.029l1.364.011q.73.006,1.467.006h1.3q1.4,0,2.306-.046a5.131,5.131,0,0,0,1.427-.234,1.283,1.283,0,0,0,.73-.559,2.122,2.122,0,0,0,.205-1.022,4.28,4.28,0,0,0-.245-1.524,2.886,2.886,0,0,0-.691-1.073,2.763,2.763,0,0,0-1.073-.633,4.5,4.5,0,0,0-1.4-.205,5.211,5.211,0,0,0-2.18.451,6.648,6.648,0,0,0-1.786,1.187,8.435,8.435,0,0,0-1.392,1.684A12.237,12.237,0,0,0,80.287-18.507ZM87.42-28.562H84.875v-2.317H87.42Zm12.715,3v5.41a5.9,5.9,0,0,1-.354,2.226,3.333,3.333,0,0,1-.947,1.341,3.231,3.231,0,0,1-1.364.656,7.372,7.372,0,0,1-1.6.171H94.28a.641.641,0,0,1-.6-.388,2.223,2.223,0,0,1-.2-1.016,2.187,2.187,0,0,1,.2-1.01.641.641,0,0,1,.6-.382h1.7a6.608,6.608,0,0,0,.833-.046,1.249,1.249,0,0,0,.588-.217,1.006,1.006,0,0,0,.348-.508,2.913,2.913,0,0,0,.114-.907v-5.33Zm.068-2.545H97.658v-2.317H100.2Z" transform="translate(1279 774)" fill="#fff"/>
    <path id="Path_9939" data-name="Path 9939" d="M3.849-9.275l-3.974-9.09H1.706l3.545,8.22H4.2l3.584-8.22H9.472L5.511-9.275Zm6.506,0-.013-6.935,1.61.013.013,6.922Zm.805-8.077a1.024,1.024,0,0,1-.747-.286.928.928,0,0,1-.292-.688.922.922,0,0,1,.292-.695,1.037,1.037,0,0,1,.747-.279,1.066,1.066,0,0,1,.747.266.867.867,0,0,1,.292.669.991.991,0,0,1-.286.721A1.006,1.006,0,0,1,11.16-17.352Zm5.078,8.168a6.068,6.068,0,0,1-1.669-.227A4.293,4.293,0,0,1,13.3-9.963l.623-1.234a4.433,4.433,0,0,0,1.117.493,4.5,4.5,0,0,0,1.3.195,2.238,2.238,0,0,0,1.11-.208.63.63,0,0,0,.344-.558.485.485,0,0,0-.234-.435,1.818,1.818,0,0,0-.61-.227q-.377-.078-.838-.143t-.922-.175a3.182,3.182,0,0,1-.838-.325,1.735,1.735,0,0,1-.61-.578,1.755,1.755,0,0,1-.234-.961,1.824,1.824,0,0,1,.377-1.149,2.4,2.4,0,0,1,1.058-.753,4.439,4.439,0,0,1,1.617-.266,6.625,6.625,0,0,1,1.416.156,3.831,3.831,0,0,1,1.182.442l-.623,1.234a3.287,3.287,0,0,0-.993-.409,4.6,4.6,0,0,0-.993-.11,2.136,2.136,0,0,0-1.1.221.647.647,0,0,0-.357.558.524.524,0,0,0,.234.468,1.907,1.907,0,0,0,.61.247,7.727,7.727,0,0,0,.838.149,7.419,7.419,0,0,1,.916.175,3.861,3.861,0,0,1,.838.318,1.613,1.613,0,0,1,.617.565,1.728,1.728,0,0,1,.234.948A1.758,1.758,0,0,1,19-10.2a2.466,2.466,0,0,1-1.084.747A4.723,4.723,0,0,1,16.238-9.184ZM20.8-9.275l-.013-6.935,1.61.013.013,6.922Zm.805-8.077a1.024,1.024,0,0,1-.747-.286.928.928,0,0,1-.292-.688.922.922,0,0,1,.292-.695A1.037,1.037,0,0,1,21.6-19.3a1.066,1.066,0,0,1,.747.266.867.867,0,0,1,.292.669.991.991,0,0,1-.286.721A1.006,1.006,0,0,1,21.6-17.352Zm5.545,8.168a2.467,2.467,0,0,1-1.766-.591,2.3,2.3,0,0,1-.623-1.747v-6.22H26.38v6.181a1.084,1.084,0,0,0,.253.766.918.918,0,0,0,.708.273,1.426,1.426,0,0,0,.909-.286L28.7-9.651A1.907,1.907,0,0,1,28-9.3,3.151,3.151,0,0,1,27.146-9.184Zm-3.532-5.675v-1.3h4.623v1.3Zm9.311,5.675a3.991,3.991,0,0,1-1.9-.468A3.412,3.412,0,0,1,29.717-10.9a3.494,3.494,0,0,1-.48-1.838,3.459,3.459,0,0,1,.487-1.838,3.473,3.473,0,0,1,1.312-1.253,3.85,3.85,0,0,1,1.889-.455,3.914,3.914,0,0,1,1.909.455,3.428,3.428,0,0,1,1.312,1.247,3.485,3.485,0,0,1,.48,1.844,3.541,3.541,0,0,1-.474,1.831,3.328,3.328,0,0,1-1.318,1.26A4.069,4.069,0,0,1,32.925-9.184Zm0-1.39a2.155,2.155,0,0,0,1.065-.26,1.837,1.837,0,0,0,.734-.753A2.5,2.5,0,0,0,35-12.742a2.492,2.492,0,0,0-.279-1.162,1.847,1.847,0,0,0-.734-.747,2.156,2.156,0,0,0-1.065-.26,2.093,2.093,0,0,0-1.045.26,1.9,1.9,0,0,0-.734.747,2.343,2.343,0,0,0-.273,1.162,2.352,2.352,0,0,0,.273,1.156,1.938,1.938,0,0,0,.734.76A1.962,1.962,0,0,0,32.925-10.573Zm5.259,1.3v-6.935H39.73V-14.3l-.182-.558a2.193,2.193,0,0,1,.98-1.065,3.461,3.461,0,0,1,1.669-.364v1.545A1.142,1.142,0,0,0,42-14.774q-.091-.006-.182-.006a2,2,0,0,0-1.467.539,2.161,2.161,0,0,0-.545,1.6v3.363Zm11.181.091A6.068,6.068,0,0,1,47.7-9.411a4.293,4.293,0,0,1-1.266-.552l.623-1.234a4.433,4.433,0,0,0,1.117.493,4.5,4.5,0,0,0,1.3.195,2.238,2.238,0,0,0,1.11-.208.63.63,0,0,0,.344-.558.485.485,0,0,0-.234-.435,1.818,1.818,0,0,0-.61-.227q-.377-.078-.838-.143t-.922-.175a3.182,3.182,0,0,1-.838-.325,1.735,1.735,0,0,1-.61-.578,1.755,1.755,0,0,1-.234-.961,1.824,1.824,0,0,1,.377-1.149,2.4,2.4,0,0,1,1.058-.753,4.439,4.439,0,0,1,1.617-.266,6.625,6.625,0,0,1,1.416.156,3.831,3.831,0,0,1,1.182.442l-.623,1.234a3.287,3.287,0,0,0-.993-.409,4.6,4.6,0,0,0-.993-.11,2.136,2.136,0,0,0-1.1.221.647.647,0,0,0-.357.558.524.524,0,0,0,.234.468,1.907,1.907,0,0,0,.61.247,7.727,7.727,0,0,0,.838.149,7.419,7.419,0,0,1,.916.175,3.861,3.861,0,0,1,.838.318,1.614,1.614,0,0,1,.617.565,1.728,1.728,0,0,1,.234.948,1.758,1.758,0,0,1-.383,1.13,2.466,2.466,0,0,1-1.084.747A4.723,4.723,0,0,1,49.366-9.184Zm4.987,2.519a3.187,3.187,0,0,1-1.013-.169A2.4,2.4,0,0,1,52.5-7.3L53.145-8.5a1.963,1.963,0,0,0,.558.351,1.64,1.64,0,0,0,.636.13,1.1,1.1,0,0,0,.714-.221,2,2,0,0,0,.506-.74l.4-.909.13-.195,2.623-6.13h1.558L57.027-8.716a4.523,4.523,0,0,1-.721,1.234,2.19,2.19,0,0,1-.883.636A3.041,3.041,0,0,1,54.352-6.664Zm1.428-2.363-3.13-7.181h1.688l2.545,5.987Zm7.558-.156a6.068,6.068,0,0,1-1.669-.227A4.293,4.293,0,0,1,60.4-9.963l.623-1.234a4.433,4.433,0,0,0,1.117.493,4.5,4.5,0,0,0,1.3.195,2.238,2.238,0,0,0,1.11-.208.63.63,0,0,0,.344-.558.485.485,0,0,0-.234-.435,1.818,1.818,0,0,0-.61-.227q-.377-.078-.838-.143t-.922-.175a3.182,3.182,0,0,1-.838-.325,1.735,1.735,0,0,1-.61-.578,1.755,1.755,0,0,1-.234-.961,1.824,1.824,0,0,1,.377-1.149,2.4,2.4,0,0,1,1.058-.753,4.439,4.439,0,0,1,1.617-.266,6.625,6.625,0,0,1,1.416.156,3.831,3.831,0,0,1,1.182.442l-.623,1.234a3.287,3.287,0,0,0-.993-.409,4.6,4.6,0,0,0-.993-.11,2.136,2.136,0,0,0-1.1.221.647.647,0,0,0-.357.558.524.524,0,0,0,.234.468,1.907,1.907,0,0,0,.61.247,7.727,7.727,0,0,0,.838.149,7.419,7.419,0,0,1,.916.175,3.861,3.861,0,0,1,.838.318,1.613,1.613,0,0,1,.617.565,1.728,1.728,0,0,1,.234.948A1.758,1.758,0,0,1,66.1-10.2a2.466,2.466,0,0,1-1.084.747A4.723,4.723,0,0,1,63.339-9.184Zm7.155,0a2.467,2.467,0,0,1-1.766-.591,2.3,2.3,0,0,1-.623-1.747v-6.22h1.623v6.181a1.084,1.084,0,0,0,.253.766.918.918,0,0,0,.708.273,1.426,1.426,0,0,0,.909-.286l.455,1.156a1.907,1.907,0,0,1-.7.351A3.151,3.151,0,0,1,70.494-9.184Zm-3.532-5.675v-1.3h4.623v1.3Zm9.454,5.675A4.226,4.226,0,0,1,74.4-9.645a3.34,3.34,0,0,1-1.338-1.266,3.541,3.541,0,0,1-.474-1.831,3.609,3.609,0,0,1,.461-1.838,3.309,3.309,0,0,1,1.273-1.253,3.722,3.722,0,0,1,1.851-.455,3.644,3.644,0,0,1,1.805.442A3.2,3.2,0,0,1,79.221-14.6a3.794,3.794,0,0,1,.455,1.9q0,.1-.007.234t-.019.247H73.871V-13.3h4.922l-.636.338a1.993,1.993,0,0,0-.247-1.052,1.9,1.9,0,0,0-.708-.714,2.021,2.021,0,0,0-1.032-.26,2.047,2.047,0,0,0-1.045.26,1.841,1.841,0,0,0-.7.721,2.218,2.218,0,0,0-.253,1.084v.26a2.118,2.118,0,0,0,.286,1.1,1.9,1.9,0,0,0,.805.74,2.637,2.637,0,0,0,1.195.26,2.883,2.883,0,0,0,1.052-.182,2.239,2.239,0,0,0,.831-.571l.87,1a3.055,3.055,0,0,1-1.175.838A4.207,4.207,0,0,1,76.416-9.184Zm13.571-7.1a3.226,3.226,0,0,1,1.474.325,2.322,2.322,0,0,1,1.006.993,3.585,3.585,0,0,1,.364,1.721v3.974H91.207v-3.766a2.026,2.026,0,0,0-.4-1.377,1.463,1.463,0,0,0-1.156-.455,1.864,1.864,0,0,0-.942.234,1.585,1.585,0,0,0-.636.688,2.58,2.58,0,0,0-.227,1.156v3.519H86.221v-3.766a2.026,2.026,0,0,0-.4-1.377,1.463,1.463,0,0,0-1.156-.455,1.864,1.864,0,0,0-.942.234,1.585,1.585,0,0,0-.636.688,2.58,2.58,0,0,0-.227,1.156v3.519H81.234v-6.935h1.545v1.844l-.273-.545a2.358,2.358,0,0,1,1.019-1.026,3.237,3.237,0,0,1,1.526-.351,2.983,2.983,0,0,1,1.695.48,2.313,2.313,0,0,1,.954,1.454l-.636-.221a2.675,2.675,0,0,1,1.117-1.247A3.44,3.44,0,0,1,89.987-16.287Z" transform="translate(1281.138 788.045)" fill="#fff"/>
  </g>
</svg>
